<?xml version="1.0" encoding="UTF-8" standalone="no"?>
<!DOCTYPE svg PUBLIC "-//W3C//DTD SVG 1.1//EN"
"http://www.w3.org/Graphics/SVG/1.1/DTD/svg11.dtd">


<!-- Page 1 -->
<svg x="0" y="0" width="907" height="916" viewBox="0 0 907 916" version="1.1" xmlns="http://www.w3.org/2000/svg" xmlns:xlink="http://www.w3.org/1999/xlink"
style="display: block;margin-left: auto;margin-right: auto;">
<defs>

<style type="text/css"><![CDATA[

.g0_1{
fill: #91D9F8;
}
.g1_1{
fill: #FCFBA5;
}
.g2_1{
fill: #231F20;
}

]]></style>

</defs>
<path d="M0,0
L0,916
L907,916
L907,0 Z " 
fill="#FFFFFF" stroke="none" />
<path d="M18.5,458.7C18.5,216.3,214.6,19.8,456.4,19.8c241.9,0,437.9,196.5,437.9,438.9c0,242.4,-196,438.9,-437.9,438.9C214.6,897.6,18.5,701.1,18.5,458.7Z" class="g0_1" />
<path d="M532.9,605.6c2.5,-4.5,1.6,-9.2,1.3,-13.9c-2.1,4.5,-2.1,9.2,-1.3,13.9m-33,3.1c-.4,-1.8,-.5,-3.7,-3,-3.7c-1.7,.1,-2.6,.9,-2.2,2.6c.4,1.9,0,4.8,3.2,4.6c2,-.1,1.6,-2.2,2,-3.5m314.8,-44c-.1,4.5,-1.3,8,1.4,12.5c1.3,-4.8,3.8,-8.2,-1.4,-12.5M442.5,607.8c-.2,3.3,.5,5.4,3.3,5.8c1.3,.2,2.4,-.6,1.9,-2.1c-.7,-2.2,.2,-5.5,-3.2,-6.1c-2.6,-.5,-1.9,1.7,-2,2.4M44.6,352.8c0,6.6,-.1,11.7,0,16.8c0,.9,-.1,2.1,1.1,2.3c1.4,.3,1.8,-.9,1.7,-1.8c-.7,-5.3,.9,-10.9,-2.8,-17.3M405,610.3c-.7,-1.8,.5,-5.2,-3.1,-5c-2.6,.1,-1.8,2.6,-1.9,4.2c-.2,2.2,-.1,4.6,2.7,4.8c2.5,.1,2.3,-2.1,2.3,-4M232.1,609.1c.4,2.2,-.4,5.4,3.4,5.6c2.2,.2,2.7,-1.9,2.4,-3.2c-.5,-2.3,.2,-5.6,-3.3,-6.2c-2.6,-.4,-2.5,1.8,-2.5,3.8m97.1,1c-.8,-1.4,.8,-5,-3.4,-5c-3,.1,-2.6,2.4,-2.6,4.3c.1,2.3,-.5,5.1,3,5.3c2.9,.2,3,-1.8,3,-4.6m-212.1,3.2c1.7,-1.5,.1,-2.8,0,-4.1c-.2,-1.6,.5,-3.9,2.5,-4c2.4,0,1.6,2.3,1.7,3.7c0,.7,-.2,1.6,-.6,2.1c-.8,1,-.9,1.8,.1,2.4c1.1,.5,1.8,-.3,2.2,-1.3c.7,-2.3,.8,-4.6,.4,-7c-.5,-2.2,-2.1,-2.5,-4,-2.4c-1.5,.2,-3.6,-.2,-3.7,1.9c-.2,2.9,-1.3,6.2,1.4,8.7m162.6,-220c-5.8,4.2,-4,8.8,-3.8,13c.1,1.2,0,2.5,1.7,2.5c1.5,0,2,-1.1,2,-2.4c.1,-4,.1,-8,.1,-13.1m-38.1,-7.5c-.5,-.1,-1,-.2,-1.5,-.3c-.9,4.7,-1.9,9.4,-2.8,14.1c-.2,1.2,-.9,2.9,1.3,3.2c1.8,.3,2.5,-1.1,2.6,-2.5c.7,-4.8,1.1,-9.7,.4,-14.5M420.9,589.3c-1.3,6.2,-.3,11,-2.4,15.4c-.8,1.8,.5,3.8,3,4c2.5,.1,2.2,-1.7,2.2,-3.2c0,-5,0,-10,-2.8,-16.2M272.6,587.5c-1.1,6.9,-2,12.4,-2.8,17.9c-.2,1.7,1,2.3,2.6,2.3c1.5,0,3,-.2,2.8,-2c-.7,-5.6,.8,-11.4,-2.6,-18.2m-186.3,-4c-.8,5.7,-.1,11.5,-2.6,16.9c-.7,1.6,.2,3.5,2.6,3.7c2.3,.1,3.2,-1.4,3.2,-3.3c0,-5.9,-.9,-11.7,-3.2,-17.3M275.9,732.9c-1.5,-2.4,-3.8,-4.3,-6.1,-4.2c-3.4,.2,-4.8,3.9,-5.1,6.5c-.3,2.5,3.2,4.6,5.3,4.4c3.5,-.2,4.1,-4.2,5.9,-6.7M449.8,856.8c3.9,1.1,5.7,-.6,5.5,-4.8c-.1,-3.4,.2,-6.4,-5,-6.5c-4.6,0,-5.7,1.6,-5.4,5.8c.2,3.3,-.4,6.7,4.9,5.5M239.7,786.7c1.9,-.5,2.6,-2,3.4,-3.3c7.1,-10.8,14.1,-21.7,21.3,-32.5c1.9,-2.8,1.4,-4.3,-1.3,-6.1c-2.5,-1.7,-4.1,-2,-6,1.1c-7,11.1,-14.3,22,-21.4,33c-.8,1.2,-2.8,2.4,-1,4c1.5,1.5,3.4,2.6,5,3.8m89.2,45c2.4,.4,2.7,-2.1,3.3,-3.7c6.7,-17.4,13.4,-34.8,20.1,-52.2c1.2,-3.1,1.1,-4.9,-2.6,-6.3c-3.5,-1.3,-4.3,.3,-5.4,3.1c-6.5,17.6,-13.1,35.3,-19.9,52.8c-1.9,4.7,.8,5.4,4.5,6.3m-15.5,-76c-.6,-2.6,-3.1,-2.7,-4.9,-3.7c-2.7,-1.6,-3.3,.9,-4.1,2.5c-8.6,16.8,-17.2,33.5,-25.9,50.2c-1.3,2.7,-2.3,4.7,1.5,6.6c3.9,2,4.8,-.4,6.1,-2.8c8.7,-16.7,17.3,-33.4,26,-50.1c.5,-.9,.9,-1.8,1.3,-2.7m201.9,48c-20.7,.1,-31,16,-23.4,35.5c5.6,14.2,23.6,19.3,36,10.2c2.4,-1.7,3.4,-3.9,2.2,-6.6c-1.5,-3.1,-3.4,-.6,-4.8,0c-3.7,1.4,-7.4,2.7,-11.4,2.7C506.8,845.3,502.3,841.9,500,835c-2.8,-8.4,-1.1,-16.7,4.2,-20.6c4.4,-3.2,9.4,-3.1,14.6,-3.2c2.1,0,5.8,3.6,6.4,-1.5c.6,-4.8,-2.9,-5.8,-6.9,-5.8c-1.2,0,-2.3,-.1,-3,-.2M390.1,850.2c8.1,.1,13.7,-3.3,15.5,-9.8c1.9,-6.6,-.6,-11.2,-8.7,-16.2c-3.2,-1.9,-6.5,-3.7,-9.6,-5.7c-1.9,-1.3,-4.1,-3,-3.2,-5.7c1,-2.8,3.5,-4.2,6.5,-4.2c4.6,.1,8.8,1.6,13,3.5c1.6,.7,3.8,3.6,5.3,.9c1.5,-2.5,1.1,-5.7,-2.1,-7.6c-6.9,-3.9,-14.2,-5.7,-22,-4.1c-5.6,1.1,-8.3,5.1,-9.4,10.2c-1.2,5.1,.6,9.3,5.1,12.1c4,2.5,8.1,4.7,12.1,7.3c2.7,1.6,5.6,3.4,4.2,7.4c-1.4,3.9,-4.8,4.4,-8.2,4.2c-5.4,-.4,-10.3,-2.5,-14.7,-5.6c-4.1,-2.9,-4.4,-.2,-4.7,2.9c-.3,3,1.6,4.7,3.9,5.9c5.1,2.8,10.4,4.7,17,4.5M601.8,815.6c0,-15.5,-10.5,-28.9,-22.8,-28.9c-12.8,.1,-22.7,9.5,-22.6,21.5c.1,15.4,10.3,28.4,22.5,28.4c13.3,.1,22.9,-8.7,22.9,-21M207.6,683.7c-1.7,-1.5,-3.2,-3,-4.8,-4.4c-2,-1.6,-2.9,.4,-3.8,1.4c-12,14.3,-23.9,28.7,-36,43c-2.7,3.1,-.3,4.1,1.5,5.9c2.2,2.3,3.6,2.1,5.5,-.4c4.4,-5.6,9.2,-10.8,13.6,-16.3c2,-2.6,3.7,-2.9,6.2,-.7c5.6,5,11.3,9.8,17.1,14.5c2.6,2.1,2.6,3.8,.5,6.3c-4.5,5.2,-8.6,10.7,-13.1,15.9c-2.1,2.4,-2.2,3.9,.4,6.1c2.5,2.1,4,2.3,6.1,-.3c11.7,-14.2,23.4,-28.2,35.2,-42.2c1.8,-2.2,2.2,-3.8,-.3,-5.8c-2.4,-2,-4.3,-2.2,-6.4,.3c-3.8,4.6,-7.8,8.9,-11.6,13.4c-1.7,2,-3.1,2.6,-5.4,.6c-5.9,-5.2,-11.9,-10.2,-18.1,-15.1c-2,-1.6,-2,-3,-.4,-4.9c3.7,-4.5,7.4,-9.1,11.1,-13.7c.9,-1,1.7,-2.2,2.7,-3.6m427.1,89c-.3,-5.1,2.5,-8,6.5,-9.8c4.4,-1.9,7.7,.3,10.1,3.9c4.5,6.8,8.7,14,13.5,20.7c1.6,2.2,1.5,7.9,7.2,4.6c6.1,-3.5,1.6,-6.4,-.1,-9.4c-2.9,-5.4,-6.2,-10.6,-9.1,-15.9c-1.3,-2.4,-2.4,-5,-3,-7.6c-1.1,-5.4,1.6,-9.4,6.2,-11.6c4.3,-2.1,7.6,.3,10.1,3.7c2.3,3,4.4,6.1,6.4,9.2c3.4,5.1,6.7,10.2,9.9,15.4c1.4,2.5,3,2.2,4.7,.7c1.4,-1.2,4.9,-1.4,3,-4.5c-6.3,-10.2,-11.5,-21.2,-19.9,-29.9c-5.4,-5.5,-13.3,-5.5,-19.2,-.5c-3.3,2.7,-5.5,6.1,-6.2,10.4c-.3,1.8,-.2,3.8,-3.5,2.9c-10.9,-2.9,-16.1,-.2,-20.9,9.7c-.8,1.4,-.7,3.9,-3.3,1.3c-2.4,-2.5,-4.2,.2,-6,1.4c-2.5,1.6,-1.2,3.4,-.2,5c6.9,11.3,13.8,22.4,20.6,33.7c1.5,2.6,3.1,3,5.6,1.3c2.5,-1.7,3.7,-3.1,1.7,-6.1C645,795.3,641.5,789.2,638,783c-1.8,-3.3,-3.5,-6.6,-3.3,-10.3M786.2,575.8c-2.8,1.7,-1.7,4.6,-1.9,6.9c-.7,12.7,-1.2,25.3,0,37.9c.6,0,1.2,0,1.8,0c0,-14.9,0,-29.9,0,-44.9c1.5,-6.9,1.4,-13.9,.5,-22.1c-3.6,8.3,.8,15.2,-.4,22.2m-674.1,9.1c5.1,1.1,4.4,-2.6,4.6,-5.6c.3,-.9,.9,-1.9,.9,-2.8c-.3,-4.9,1.8,-6.4,6.6,-5.7c4.9,.6,9.9,.2,14.7,.7c10.4,.9,10.4,1,11,11.3c.4,2.4,-1.9,6.3,1.4,6.9c3.3,.6,7.8,3,10.6,-1.7c1.1,-3,.8,-6.2,.7,-9.3c-.3,-5,1.3,-7.3,6.7,-6.9c5.6,.5,11.3,.3,17,.3q9.9,.2,10.7,10c0,.4,0,.8,0,1.2c.3,4.6,4,2.7,6.3,3.1c2.8,.6,3.1,-1.1,3.2,-3.4c.6,-9.5,.7,-9.5,10.3,-9.6c9.1,0,9.3,0,9.5,9.3c.1,3.3,1.8,4,4.2,4.5c2.5,.5,4.5,-.2,4.9,-2.8c.4,-3,1.3,-5.2,4.3,-6.1c1,-.3,1.3,-1.5,1.1,-2.5c-.2,-1,-1,-1.1,-1.7,-.5c-1,.8,-2.2,2.6,-2.8,.1c-.4,-1.7,1.5,-2,2.9,-1.9c4.5,0,9,.4,13.1,2.5c-.2,3,3.3,4.7,2.6,7.9c-.9,3.7,1.4,3.7,4,3.7c2.7,0,4.1,-.8,3.9,-3.7c-.5,-6.3,.1,-11.7,8.8,-9.8c.1,0,.3,-.6,.7,-1.2c-2.1,-.4,-4.1,-.8,-7.6,-1.5c8.1,-2.6,14.9,-.7,21.6,-1.4c9.5,1.7,19.2,.7,28.8,.9c2.5,.4,5.2,.3,7.4,1.3c3,1.4,-1.1,1.2,-.7,2.2c-2.6,.1,-5.2,.1,-7.8,.2c-8.1,.7,-16.1,-2.9,-24.5,-.2q2.9,3.1,1.7,10.6c-5.6,.7,-2,-5.5,-5.5,-7c-.2,3.2,-1.1,6.5,1.2,8.8c1.6,1.7,3.9,.9,5.6,-.7c2.4,-2,1.6,-4.9,2.2,-7.4c.6,-2.5,1.9,-3.8,3.9,-2.8c3.2,1.7,6.4,.4,9.5,.8c3.1,1.5,2,4.5,2.4,7c-.2,2.4,-1.6,5.3,2.8,5.3c3.4,0,5.5,-.8,5.4,-4.9c-.1,-2.4,-.5,-5,1,-7.3c2.3,0,4.7,-.1,7,-.1c1.1,.1,2.3,.2,3.5,.2c4.2,1.1,8.4,1.8,13.3,.1c-2.7,-2,-5.1,-1.3,-7.3,-1.3c-4,-1.2,-9.2,-.2,-10.8,-5.9c-2.2,-.8,-4.4,-1.3,-6.8,-.9c-1.2,0,-2.3,-.1,-3.5,-.1c-9.1,-.1,-18.1,-.2,-27.2,-.3c-7.6,0,-15.1,-.1,-22.7,-.1c-1.5,0,-3.7,-.7,-4.1,1.1c-1.2,4.2,-4.5,3.6,-7.5,4c-.4,-.1,-.8,-.1,-1.2,-.1c-4.5,-1.1,-9.2,-1.9,-13.9,-1.4c-8.7,-1.6,-17.4,-1.1,-26.2,-.8c-3.2,.1,-7.5,-1.9,-7.2,4.4c.1,3.1,.5,8,-3.1,8c-3.3,-.1,-2.5,-5.1,-2.4,-8c.1,-4,-1.5,-5,-5.2,-5c-7.4,-.1,-14.9,-.7,-22.3,-.8c-11.9,-.2,-12,.1,-11.6,11.8c-.5,7.3,-1,7.7,-8.3,5.8c0,-4.7,0,-9.4,0,-14.1c0,-1.8,0,-3.5,-2.6,-3.6c-12.7,-.7,-25.4,-1.5,-38.1,-2.3c-2.8,-.2,-3.4,1.2,-3,3.6c0,2.5,-.1,5.1,-.2,7.6c0,1.3,.2,3,-1.8,2.9c-1.7,-.2,-2,-1.8,-2,-3.1c-.1,-1.1,.3,-2.2,.7,-3.3c1.7,-4.9,.6,-7.6,-5.1,-6.9c-9,-1.4,-18.1,-.9,-27.2,-.7c-3.4,.7,-9.6,-3.7,-9.2,4.7c-.6,2.4,-.8,5,-2.3,7.1c-2.2,-1.1,-.6,-3.3,-2.6,-4.5c.9,3.4,-2.8,8.7,4.6,8c7.6,2.1,8.5,1.5,9.3,-6c.2,-2.3,.2,-4.7,.4,-7c5.9,-.1,11.8,-.1,17.7,-.2c2.8,.1,5.6,.7,8.2,.1c6.4,-1.4,2.8,5.3,5.7,6.8c1.1,.5,1,2.6,-.3,3.5c-4.6,3.5,-.4,3.8,1.7,4.9ZM154.6,366.2c0,.4,-.1,.9,-.1,1.3c0,.8,0,1.5,0,2.2c0,.8,0,1.6,0,2.5c-3.1,12.1,-2.4,13.6,7,14.2c2.7,1.2,5.5,1.2,8.3,1c4.7,1.1,6.4,-.6,5.1,-5.3c.4,-4.7,.7,-9.4,1.3,-14c.7,-4.7,1.3,-9.4,.3,-15q-2.9,13.3,-16,11c-1.2,-.2,-2.3,-.4,-3.5,-.6c1.2,-6.5,2.3,-13.1,3.5,-19.7c4.9,.8,9.9,1.3,14.5,3.5c1.3,.6,2.3,1,2.9,0c.8,-1.5,-1.1,-2.1,-1.7,-2.3c-5.6,-1.6,-11.1,-3.4,-17,-3.5c-1.9,-.4,-2.1,.7,-2.3,2.3c-.7,6.7,-1.5,13.4,-2.3,20.2c0,.7,0,1.4,0,2.2M27.2,565.2C25,552.2,22.7,539.3,20.6,526.4C19.1,516.7,18,507,17.4,497.2C16.5,481.5,16.2,465.8,16.6,450c3.5,.3,6.9,1.9,10.5,1.3c15.2,2.7,30.6,4.6,46,6c2.6,1,5.4,1.3,8.2,1.1c.4,0,.8,.1,1.2,.1c5.8,1.2,11.6,2.9,17.7,2.3c14.1,3.6,28.7,3.8,43.1,6.7c7.6,1.4,15.9,1.9,23.9,2.5c3.3,.2,6.5,.8,10.5,.2c-1.8,-1.6,-3.6,-.8,-4.3,-2.3c11.7,-.2,23.3,2.2,34.9,3c8,.6,15.9,1.8,23.8,2.6c.1,-.7,.2,-1.5,.3,-2.3c-18.8,-1.9,-37.7,-3.8,-56.5,-5.7c-1.9,-1.2,-4.1,-1,-6.3,-1.1c-6.8,-.2,-14.4,.4,-20.3,-1c-12.1,-2.8,-24.2,-3,-36.2,-4.7c-11.8,-1.4,-23.5,-3.3,-35.4,-3.6c-15.6,-2.2,-31.4,-3.9,-47.1,-5c-4.6,-1.6,-9.3,-1.4,-14,-.9c2.1,-8,.9,-16.3,1.8,-24.5c2.2,-19.6,5.7,-38.8,10.1,-57.9c2.5,-11.1,5.7,-22,9.2,-32.8c2.4,.2,4.4,2.1,7,1.4c4,1.5,8.3,1.9,12.6,2.5c11.6,1.7,11.8,1.7,11.6,13.5c-.1,5.6,2.7,7.6,7.3,7.6c4.6,0,3.6,-4.3,3.7,-7c.1,-4.1,.1,-7.7,4.5,-9.7c.3,-.2,.2,-1.4,.3,-2.2c.3,-3.7,.5,-7.4,1,-11c.3,-2,-.9,-5,2.6,-5.6c2.8,-.1,5.6,-.2,8.4,-.3c2.1,3,.5,6.5,1.1,9.8c-1.1,8.6,-2.2,17.2,1.1,25.7V336.5c.4,-3.9,.9,-7.8,1.3,-11.7c1.7,-2,3.9,-1,5.9,-.7c3.6,.5,7.2,1.1,10.7,1.6c10.5,2.1,21.2,3.8,31.5,6.5c14.2,3.6,14.4,3.7,14.5,-11c-.4,-4.4,2.7,-4.6,5.8,-4.9c5.6,0,11.1,.1,16.6,.1c4.7,.8,9.4,1.7,14.1,2.5c1.2,1.3,2.3,2.4,2.5,4.5c1,11.2,1.7,11.8,12.8,12.1c5.5,.1,11.3,.8,15.8,3.7c3.9,2.5,1.3,8,2,12.2c0,.2,0,.3,0,.5c0,2.8,1.5,3.7,4.1,3.8c2.9,.2,3.9,-1.2,3.9,-3.7c.1,-3.2,.2,-6.3,.3,-9.4c6.6,-1.7,12.6,1.6,18.9,2c3.2,.2,5.1,1.2,4.8,5c-.5,5,-.3,10.2,-.6,15.3c-.2,3.9,-.5,8,-6,8.4c-1.5,.1,-1.8,1.2,-1.8,2.4c0,3.5,-.6,7.2,.1,10.6c.9,3.7,3.5,4.7,7.2,1.6c-7.3,-1.2,-4.3,-6.6,-5,-10.4c-.2,-1.2,.3,-2.6,1.8,-2.5c1.3,0,1.7,1.2,1.8,2.5c.2,2.9,-.7,6.1,1.4,8.7c.7,-2.2,1,-4.4,.9,-6.7c-.1,-3.4,1.6,-4.5,4.7,-4.1c3.6,.7,7.1,2,10.8,1.5l-.1,-.1c.6,.9,1.2,1.5,2,.2c1.6,.1,3.1,.1,4.7,.1c6.5,2.4,6.6,7.7,6.2,13.3c-.1,2.3,0,5.1,3.2,5.3c3.1,.2,3.5,-2.6,4,-4.9c2.1,-8.7,2,-8.7,11.2,-7.1c3.1,.5,6.2,.9,9.2,1.6c2.2,.5,4.8,.7,5.7,3.4c-.5,12.3,-1.8,24.6,-1.4,37c-1.9,7,-.6,14.4,-1.9,21.5c-.8,4.7,.5,8.5,4.3,11.4c6.1,7.9,12.3,15.8,18.4,23.8c-5.4,.7,-10.7,-.6,-16.1,-.7c-2.7,-1.1,-5.5,-.7,-8.2,-.6c-3.8,-1.3,-7.7,-1.4,-11.6,-1.4c-6.7,-1.3,-13.5,-2.1,-20.3,-2.1c-4.3,-.7,-8.7,.1,-12.9,-1.3c-3.8,-1.8,-7.9,-1.1,-11.8,-1.3c-9.1,-1.5,-18.1,-2.9,-27.4,-1.2c8.3,1.1,16.7,2.3,25,3.4c3.2,.1,6.4,.1,9.6,.2c3.6,1.9,7.7,.9,11.5,1.3c6.7,1.5,13.4,2.4,20.3,2.2c3.8,1.2,7.7,1.4,11.7,1.3c3.4,1.8,7.1,1.1,10.7,1.2c3.7,1.9,8.1,.2,11.8,1.9c2.3,.9,4.7,.4,7,.3c1.2,.5,2.4,1,3.5,1.5c0,3.1,0,6.1,0,9.2c-1.6,16.6,-1.5,33.2,-2.1,49.9c0,4.6,0,9.3,.1,13.9c-.1,1.7,-.1,3.4,-.1,5c-.9,4.2,1.2,9,-4.4,13c8.1,-1.1,9.6,2.3,8.7,8.1c-.5,3.4,1.8,4.4,4.7,4.7c3.2,.4,3.7,-1.6,4.4,-4.1c.9,-2.9,-1.2,-7.1,2,-8.5c2.7,-1.2,6.2,-.2,9.4,-.2c1.3,0,2.7,.1,4.1,.1q9.6,.1,11,9.5c.2,1.7,.5,3.4,2.5,3.3c1.8,0,4.7,1.5,4.6,-2.3c1.6,-1.4,1.2,-3.3,1,-4.9c-.6,-4.2,1.5,-5,4.9,-4.6c1.2,.2,2.4,.2,3.5,0c3.8,-.5,5,.9,4.9,4.8c-.2,7.5,.1,7.5,8.1,6.8c2.5,-3.5,.1,-7.7,1.5,-11.4c4.6,.9,10.7,-2.7,13.3,4.5c1.5,-.6,-.1,-4.1,2.8,-3.2c1.9,3,2.5,5.9,-.4,8.6c-.7,.6,-3.2,-.6,-2.1,1.9c.8,1.7,2.1,.5,3.4,.1c3.3,-.7,2.7,-3.4,2.8,-5.5c.2,-4.3,2,-5.7,6,-4.3c1.8,.9,2.4,2.5,2.3,4.3c-.4,4.3,1.8,5.1,5.6,5.3c6.5,.4,7.6,-3.2,7.3,-8.3c2.2,-1.9,4.8,-1.4,7.4,-1.4c7.4,-.1,14.9,0,22.4,0c1,0,1.9,.1,2.9,.2c6.9,.7,16,-2.2,16.2,9.8c0,1,1,2.1,2.5,1.9c1.6,-.2,1.7,-1.4,2,-2.5c.5,-2.6,-1.1,-5.5,1.1,-7.9c13.7,-1,27.3,1.9,41,1.1c2.2,-.2,4.9,.3,5.1,3.6c0,2.7,0,5.5,0,8.2c0,5.1,0,10.2,0,15.3c8.5,11.5,17.5,22.6,26.9,33.3c9.5,11.8,19,23.6,28.5,35.4c3.1,3.6,6.2,7.2,9.2,10.8c.6,.9,1.3,2.4,2.1,1.7c1.2,-.9,-.4,-1.8,-1,-2.6c-3,-3.7,-6,-7.5,-9.1,-11.2c-7.3,-9.3,-14.6,-18.7,-22,-27.9c-1.8,-2.2,-3.1,-4.5,-2.8,-7.4c1.4,-7.5,1.2,-15.1,.8,-22.7c0,-1.1,0,-2.2,0,-3.2c.6,-13.5,2,-27,1.2,-40.5c0,-1.1,0,-2.3,0,-3.4c.2,-9.5,.9,-19,.2,-28.5c.1,-3.1,.2,-6.2,.2,-9.3c1.9,-1.5,1,-3.6,1,-5.5c.2,-6.1,-.4,-12.2,.4,-18.2c.7,-4.7,-.5,-7.3,-5,-8.5c0,-2.1,-.2,-4.3,0,-6.5c0,-1.4,-.6,-3.4,1.9,-3.4c1.9,0,3.5,.5,3.8,2.8c.2,1.4,.5,2.7,.8,4c1,1.6,2.2,2.5,4.1,1.4c2,-.3,2.2,-1.7,2.6,-3.3c.5,-2.5,.2,-5.8,4.3,-5.4c4.3,.3,1.7,3.8,2.5,5.7c-2.1,12.1,-1.1,24.3,-1.6,36.5c-1,20.6,-1.2,41.2,-1.7,61.8c-.1,5.1,-.2,10.2,-.3,15.3c-1.1,7.4,-1.3,14.9,.1,22.4c.7,-11.8,3.1,-23.5,2.1,-35.4c0,-.7,0,-1.5,0,-2.3c.8,-20.2,1.7,-40.4,2.5,-60.6c.5,-13.7,.7,-27.5,1.1,-41.2c.1,-.4,.1,-.8,.2,-1.3c5.4,-1.6,6.1,2.1,6.6,6.1c.2,1.5,.6,3.4,2.6,3.4c2.2,.1,1.7,-2.2,2.3,-3.5c.7,-1.4,-.9,-4.1,1.7,-4.2c1.8,-.2,4.1,.4,5.2,2.2c2.9,4.8,2.8,.4,3.7,-1.2c2,0,4.1,-.1,6.1,-.2c.9,1.7,2.5,3.2,1.9,5.3c-1.9,6.7,1.5,12.4,3.4,18.4c.5,1.5,1.2,2.3,2.8,2.4c1.6,.2,1.6,-1,1.6,-1.8c-.1,-5.4,3.5,-4.5,6.8,-4.1c1.3,1.4,1.1,3.2,1.3,4.9c.2,1.3,.8,2.8,2.5,2.7c1.4,-.1,1.5,-1.6,1.7,-2.7c1,-5.5,4,-4.6,7.5,-2.5c.5,2.3,-1.2,6.2,2,6.5c2.9,.2,1.1,-4,2.5,-5.7c.2,-.3,.2,-.8,.3,-1.2c4.1,-.9,6.1,.9,6.7,4.9c.2,1.3,.7,3.1,2.2,3.2c1.8,.1,1.7,-1.7,1.9,-3c.7,-5.4,3.5,-4.7,6.8,-2.3c.1,2.3,0,4.7,2,6.5c2.1,-2.7,1.7,-6.6,4.2,-9.1c1.4,.5,2.8,1,4.2,1.5c.9,2.5,1.8,5.1,3.2,8.9c.6,-3.3,-1.6,-5.6,1.8,-6.6c6.5,-2,7.3,2.9,8.7,6.9c1.7,-.3,1.8,-1.3,2,-2.3c.3,-1.6,-.1,-3.8,2.5,-3.9c2.6,0,3.1,1.9,3.4,4c.3,1.3,-.5,3.6,2.3,2.9c.7,-.5,1.3,-1,.9,-2c.1,-.5,.1,-1.1,.2,-1.7c.3,-.6,.6,-1.2,1,-1.8c.4,-.2,.9,-.3,1.4,-.5c3.9,1.1,.8,6,3.9,7.7c.5,-.4,.8,-.7,1.1,-1c1.4,-1.5,0,-5.2,2.6,-5.3c3.2,-.2,2.2,3.4,2.9,5.5c.4,.9,.7,1.9,1.9,1.8c1.1,0,1.5,-1,1.8,-2c.4,-1.4,.2,-3.5,2.2,-3.7c2.1,-.1,1.6,2.4,2.6,3.5c.3,2.3,.9,3.6,2.8,.8c.9,-1.4,.1,-3.5,1.9,-4.4c2.9,.9,3.7,3.4,4.5,6.5c2,-1.7,1,-5.1,3.4,-4.9c2.3,.2,1.4,2.8,1.6,4.4c.2,1.3,.8,2.3,2.2,2.2c1.9,0,1.8,-1.8,2.2,-3c.5,-1.2,.2,-2.9,2.3,-2.8c1.6,.1,2.2,1.3,2.5,2.8c.2,1.1,-.1,2.4,1.7,3c2.5,-.9,.8,-5.7,4,-5.5c6.2,.3,5.1,-3.8,4.9,-7.5c.4,-2.8,1.2,-5.7,1.1,-8.5c-.1,-3.1,1.8,-3.3,4,-3.5c1.9,.1,3.9,.1,5.9,.3c3.8,.2,8.8,-1.6,8.4,5.4c-.1,.8,1,1.6,2.1,1.7c1.4,.1,2.4,-.5,2.5,-1.9c.5,-6.5,5,-5.5,9.1,-4.6c3.6,.8,8.7,-1.6,10,4.6c.4,1.7,2.8,2.7,3.5,.9c2.9,-7.5,9,-4.4,14.1,-4.9c2.6,-.3,3.4,.8,3.3,3.3c-.1,6.3,0,12.6,0,18.9c-.7,2.8,-1.2,5.5,-.4,8.3c-.6,2.5,-.8,5.1,-.1,7.6c.9,-.2,1.2,-.2,1.2,-.2c.6,-10,1,-20,1.7,-30c.2,-2.2,-1.3,-5.3,2.1,-6.5c.6,1.8,-.9,4.4,2.1,5.7c.7,-1.6,1.4,-3.1,2.1,-4.7c1.3,1.4,-.3,3.7,1.7,4.3c2.1,.7,1.4,-2.9,3.4,-2.7c.9,1.7,-.7,4.2,2.2,5.4c.7,-1.5,1.4,-2.9,2.1,-4.3c1.2,1,.1,2.8,1.4,3.4c2.3,-.4,1.1,-3.6,3.5,-3.7c1.2,1.4,-.2,3.5,1.4,4.8c2.2,-.4,1,-4.5,3.7,-3.7c2.6,.7,1.7,3.6,2.4,5.5c.3,1,.2,2.3,.2,3.5c0,16.1,-.1,32.2,-.1,48.4c0,2.5,0,5.1,-1.1,7.5c-3.6,.1,-7.2,.2,-10.8,.3c-1.9,-.1,-3.9,-.3,-5.8,-.3q-11.7,-.4,-12,-11.7c.6,-4.8,.4,-9.5,0,-14.3c0,-1.4,.7,-3.2,-1.2,-4.4c-1.3,2.5,-.8,4.7,-.6,6.8c-.3,6.1,-.3,12.1,-.9,18.1c-.3,3.7,.8,6.3,3.1,9c3.7,4.2,8,8,10.8,13.1c.3,12.1,.7,24.3,1.1,36.5c-2.8,10.7,-8.3,20.3,-13.5,30c-12,22.6,-26,44,-41.8,64.2c-21,26.9,-44.9,51,-71.6,72.3c-26,20.8,-54.1,38.5,-84.1,52.8c-38.1,18.2,-78,30.6,-119.6,38c-29.1,5.1,-58.3,4.1,-87.5,4.6c-41.2,.7,-81,-7.7,-120.1,-19.6C279.4,865.4,240.8,845.7,204.7,821.3c-19.2,-13,-37,-27.8,-54,-43.8C128,756.2,108,732.5,90.4,706.9C71,678.6,55.2,648.2,43.3,615.9C38.2,602.1,33.6,588.1,30.1,573.8c-.5,-2.1,-.6,-4.3,-.9,-6.4c.8,-.1,1.7,-.2,2.6,-.3c5.6,.4,11.2,1,16.8,1.1c3.1,.1,6.3,1.3,9.4,-.4c-2.7,-3.5,-6.5,-.9,-9.6,-1.7c-3.6,-1.2,-7.2,-1.2,-10.8,-.7c-1.9,0,-3.9,-.1,-5.8,-.1c-1.6,0,-3.1,-.1,-4.6,-.1Z" class="g1_1" />
<path d="M457,490.5c2.5,-.2,5,-.3,7.5,-.4c3.2,2.1,1.2,5.3,1.6,7.9c.2,2.2,.9,4,3.1,4.2c2.5,.2,2.7,-2.4,2.6,-3.8c-.4,-5.2,2.6,-4.6,6.2,-4.5c4.2,.1,4.9,2.1,4.6,5.5c-.1,1.4,.1,2.7,.1,4.1c-.1,1.6,-.7,3.3,.6,5c.9,-3.5,5.3,-4.4,5.2,-8.5c-.1,-1.5,-1.4,-4.8,2.7,-4.1c3,.5,5.9,.6,5.6,5c-.1,1.9,-1.1,4.7,2.3,4.9c3.6,.3,3.4,-2.8,3.4,-4.9c-.2,-3.8,1.4,-4.9,4.8,-4.2c3.9,.6,5.3,2.9,4.6,6.7c-.3,2.2,.3,4.1,2.8,4.4c3,.3,2.9,-2.4,2.9,-4.1c.1,-6.7,3.7,-5.5,7.7,-3.8c0,2.1,0,4.3,.1,6.4c0,1.4,.3,2.9,2,3c1.8,.1,2.1,-1.6,2.3,-2.8c.4,-2.2,.3,-4.3,1.8,-6.1c3.3,0,6.9,-1.1,7.7,3.9c.4,2.4,-1.4,6.6,2.9,6.3c3.7,-.3,2.7,-4.4,3.1,-7.1c.1,-.4,0,-.8,.1,-1.2c5.2,-1,8.9,-.2,8.1,6.5c-.2,1.6,.5,3.1,2.1,3.7c1.7,.6,2.6,-.1,2.7,-1.9c2,-2.2,-.6,-7.5,4.9,-7.3c2.7,.3,3.4,2.1,3.4,4.5c-.1,2.3,-.1,4.7,2.6,5.8c2.9,-2.8,1,-7.2,3.5,-10.1c1.1,-.1,2.3,-.1,3.4,-.1c1.6,1.7,4,2.7,3.5,5.8c-.3,1.9,-.8,5,2.3,4.9c2.3,0,1.9,-2.8,2.3,-4.6c.1,-.7,.1,-1.5,.2,-2.3c5.4,-1.6,7.4,.6,7,6c-.3,4.3,.1,8.6,.1,12.8c0,3.9,-.1,7.8,-.2,11.7c-1.2,11.8,-1.2,23.7,-.9,35.6c-.1,6.3,-.2,12.6,-.2,18.8c-.6,1.3,-.8,2.6,-.1,3.9c-.1,1.5,-.2,3,-.3,4.4c-1.2,5.6,-.7,11.2,-.5,16.8c-.2,8.5,-.4,16.9,-.5,25.3c-.7,.3,-1.5,.6,-2.2,.8l-.1,-.1c-8.6,-10.7,-17.2,-21.3,-25.9,-32c-.1,-2,-.2,-4,-.3,-6c.1,-2.7,.1,-5.4,.1,-8.2c.4,-1.4,.6,-2.8,-.2,-4.2c.1,-1.7,.1,-3.4,.2,-5.1c1.8,-6.2,-3.9,-5.6,-6.3,-5.7c-13.2,-.5,-26.4,-2.4,-39.6,-1.4c-9.1,-1.4,-2.3,6.2,-5.3,8.4c-.9,-.6,-1.4,-2,-1.3,-3.3c.6,-4.9,-2.1,-5.9,-6.2,-5.4c-1.1,.1,-2.3,0,-3.5,0c-10.7,-1.8,-21.5,-1.5,-32.1,-.7c-3.4,.2,-8,-1.1,-10.6,3.1c-.3,.6,-1,1.2,-1,1.9c-.1,2.2,-.1,4.2,-3.3,4c-2.8,-.2,-3.7,-1.5,-3.8,-4c-.1,-1.5,.2,-3.2,-1.1,-4.3c-4.2,-2.8,-8.7,-.4,-13,-1c-4.1,-2.3,-8.5,-2.6,-13,-2.5c-10.3,-1.5,-20.6,-1.9,-30.9,-2.1c-11.3,-1.1,-22.6,-1.4,-33.8,-1.6c-2.7,-.1,-5.6,.3,-7.6,-2.2c0,-3.5,0,-7.1,0,-10.7c0,-2.3,0,-4.6,0,-7c.6,-15.4,2,-30.8,1.3,-46.3c.9,-9.4,.2,-18.8,.1,-28.2c3.9,-.3,8.1,-.9,11.5,.8c3,1.5,.7,5.4,1.5,8.2c.5,1.7,1.8,2.7,3.4,2.6c2.2,-.2,1.3,-2.1,1.4,-3.2c0,-3,.4,-6.2,3.6,-7.1c5.6,-1.4,9.9,2.1,10.2,7.8c.1,2.6,.7,4.8,3.7,5c3.1,.2,2.4,-2.5,2.8,-4.2c.5,-2.6,-.1,-5.9,4.4,-5.1c3.5,.7,7.4,.3,7,5.8c-.2,2.3,-.4,4.8,3.2,5c3.3,.1,3.7,-2.4,3.6,-4.3c-.1,-4.9,2.6,-4.7,6,-4.3c3.5,.5,6.2,1.1,5.5,5.7c-.2,1.6,-1,4.5,1.1,4.5c1.7,0,4.5,-1.4,4.2,-4.6c-.2,-2.6,.2,-4.9,3.7,-4.6c4.7,.9,8.9,1.9,8.4,8.5c-.3,3.1,1.1,3.5,4.5,2.4c.4,-.9,1,-1.8,1,-2.7c-.1,-5.5,2.8,-5.9,7.3,-4.9c3.8,1,3.5,3.6,3.3,6.4c-.1,2.1,.6,4.1,2.9,4.3c2.4,.1,2.3,-2.3,2.7,-3.9c.4,-2.1,.5,-4.2,.8,-6.3Z" class="g1_1" />
<path d="M873.5,585c1.6,.1,3.2,.2,4.8,.3c-.7,4.2,-2.3,8.2,-3.9,12.2c-4.9,-.7,-10,-.5,-14.8,-2v-.1c-.5,-.3,-.9,-.6,-1.4,-1c-2.6,-3.3,-6.4,-5.8,-8.8,-10.3h7.3c1.6,.9,3.3,1,5,.4c1.1,.1,2.2,.2,3.3,.2c2.8,.7,5.7,.5,8.5,.3Z" class="g1_1" />
<path d="M873.6,599.5c-2.8,11,-6.6,21.7,-11.8,31.8c-.3,-6,-.6,-12,-1,-18c-.8,-13.6,-.5,-14,12.8,-13.8Z" class="g1_1" />
<path d="M879.1,560.3c.9,-5.1,-.5,-10.4,1.5,-15.4c1.2,-.8,.4,-3.1,2.6,-3.5c1.8,.6,-.5,7,4.4,3.5c-.9,12.3,-4.6,23.9,-8.1,35.6c-.2,-6.8,-.3,-13.5,-.4,-20.2Z" class="g1_1" />
<path d="M485.3,502.2c-1.1,-3.5,1.2,-7.9,-3,-10.4c2.9,.6,6,.3,8.6,1.9c-3.8,-.6,-5.7,.5,-4.8,4.8c.2,1.2,.6,2.7,-.8,3.7Z" class="g1_1" />
<path d="M887.6,544.9c-.1,-1.2,.1,-2.2,1.1,-3c.1,1.2,.2,2.3,-1.1,3Z" class="g1_1" />
<path d="M195.8,220.6c.3,.2,.6,.3,.9,.2c.8,.8,1.7,1.1,2.7,.8c2.2,1,4.6,1.5,6.1,3.6c.5,4.8,-1.2,6.7,-6,4.5c-2,-.9,-4,-.9,-6.1,-.6c-6.6,-2.2,-13.3,-1.2,-19.9,-1.2c-2.6,-1.1,-7.5,2.2,-7.7,-3.8c1.9,-5.5,7,-3.8,11,-4.8c4,.1,8,.2,11.9,.3c2.3,1.1,4.7,1.1,7.1,1Z" class="g1_1" />
<path d="M194.6,207.6c3.5,1.4,2.1,4.3,2.2,6.8c-1.1,1.5,-2.5,1.2,-4.2,.9c-4.1,-.7,-8.3,-1.4,-14.1,.4c3.1,.4,4.6,.5,6.1,.7c-2.6,.4,-5.1,.7,-7.7,1.1c-2.9,.3,-5.8,.5,-8.9,.8c.8,-2.1,2.7,-1.7,3.9,-1.9c3.3,-.3,5,-.7,4.2,-5.1c-1.1,-6.2,4.3,-4.3,7.6,-4.7c3.6,1.3,7.3,1,10.9,1Z" class="g1_1" />
<path d="M193.6,196.7c3.8,0,4.1,2.2,3.8,5.4c-.4,3.2,-2.1,3.7,-4.7,3.3c-.9,-.1,-1.9,.1,-2.9,.1c-2.1,-.1,-4.2,-.1,-6.3,-.3c-7.1,-.5,-8.1,-2.3,-5.4,-9.6c2.7,.1,5.5,.1,8.2,.1c2.4,1,4.8,1.5,7.3,1Z" class="g1_1" />
<path d="M179.5,192.6c7.2,-9.4,8.3,-9.3,15,.8l-14.1,.1c-.3,-.2,-.6,-.3,-1,-.4Z" class="g1_1" />
<path d="M173.2,213.1c-2.2,1.7,-4.6,2.5,-6.3,1.3c-1.7,-1,-.9,-3.4,-.5,-5.5c2.8,.7,5.1,1.6,6.8,4.2Z" class="g1_1" />
<path d="M295.4,393.4c-.2,-3.1,-.5,-5.1,-.4,-7.1c.1,-1.6,-.9,-3.6,1.3,-4.6c.3,-.1,1.4,.3,1.4,.6c.5,1.9,3,3.8,1.5,5.7c-1.1,1.4,-1.5,3.3,-3.8,5.4Z" class="g1_1" />
<path d="M163.7,278.6c.1,-1.5,.1,-3.1,.1,-4.7c.5,-4.4,1.2,-8.8,1.1,-13.2c0,-3,1.7,-3.4,3.8,-3.8l11.8,.2c7.5,1.3,15,2.5,22.5,3.8c.4,.3,.8,.6,1.1,.9c.4,8,.7,15.9,-.1,23.9c-3.6,-.2,-6.5,-2.8,-10.2,-2.5C185,281,176,280.3,167,281.4c-2.7,.3,-3.4,-.4,-3.3,-2.8Z" class="g1_1" />
<path d="M187.5,247c4.8,-1.2,9.2,.2,13.5,2.2c4.3,1.9,5.8,4.8,2.9,9c-5.3,-2.1,-10.8,-3.4,-16.5,-3.6c-1.5,-.9,-3,-.8,-4.6,-.6c-2.3,-.1,-4.6,-.1,-6.9,-.2c-2.3,-.2,-4.5,-.6,-6.8,-.5c-3.2,.1,-4.5,-1.3,-4.3,-4.4c7.2,-5.1,14.9,-3.7,22.7,-1.9Z" class="g1_1" />
<path d="M200.6,316.6c-3.8,-1.5,-7.6,-2.8,-11.7,-2.6c-2.7,-1.5,-5.5,-1.2,-8.4,-.9c-1.2,0,-2.4,0,-3.6,0c-1.2,0,-2.4,0,-3.6,0c-1.5,0,-3.1,0,-4.6,0c-1.6,0,-3.2,-.1,-4.7,-.2c-.1,-7.9,-.2,-15.8,-.3,-23.7c.1,-.3,.2,-.6,.3,-1c7.3,-3,15,-.5,22.4,-1.3l11.8,2.3c.8,.2,1.7,.5,2.5,.8v.1c1.1,.6,2.2,1.2,2.5,2.6c-.1,6.4,-.1,12.9,-.2,19.4c-.1,1.9,.6,4.2,-2.4,4.5Z" class="g1_1" />
<path d="M167.6,283.4h16.8c0,.2,0,.4,0,.7h-17c.1,-.3,.2,-.5,.2,-.7Z" class="g1_1" />
<path d="M82.4,323.8c2.1,4,.8,8.3,1.1,12.5c-1.3,2.1,-1.1,4.5,-3.9,6.1c-3.8,2.2,-1.7,6.8,-1.6,10.3c.1,2.1,.1,3.4,-2,3.8c-2.2,.4,-3.9,-.1,-4.2,-2.8c-.3,-3.1,-1.1,-6.3,-.8,-9.3c.7,-5.3,-1.8,-7.2,-6.5,-7.7C57.9,335.9,51.3,334.9,44.8,334c-.5,-.7,-1,-1.4,-1.6,-2c.2,-8.8,.3,-8.4,9,-9.8c10.2,-1.5,20.2,-.7,30.2,1.6Z" class="g1_1" />
<path d="M202.7,246.9c-8.7,-3.3,-17.6,-4.4,-26.8,-3.6c-2.4,.1,-4.8,.1,-7.2,.1c-1.2,0,-2.4,0,-3.7,0c-.1,-.4,-.2,-.9,-.4,-1.4q1.1,-8.3,13.7,-10.6c6.6,.8,13.2,1.5,19.8,2.3c4.8,2,9.1,4.4,7.3,10.9c-.5,1.7,-1.3,2.2,-2.7,2.3Z" class="g1_1" />
<path d="M201.8,218.2c-.3,-.5,-.5,-1,-.9,-1.4c-2.2,-2.1,-2.8,-5.3,-1,-6.7c1.8,-1.4,5.1,-.5,6.6,2.2c0,1.3,0,2.5,0,3.7c.3,4.6,-3,1.8,-4.7,2.2Z" class="g1_1" />
<path d="M592.9,815.5c.1,5.9,-2.5,10.1,-8,12.4c-5.7,2.3,-10.1,.1,-13.6,-4.1c-4.7,-5.3,-6.2,-11.8,-5.7,-18.7c.4,-4.9,3.7,-7.5,7.8,-9.4c4.2,-2,7.6,-.9,11,1.6c4.9,3.8,8.4,11.3,8.5,18.2Z" class="g1_1" />
<path d="M171,466.7c.8,.5,2.3,-.3,2.4,1.3h-7.5c1.9,-1.9,3.7,-.8,5.1,-1.3Z" class="g1_1" />
<path d="M233.5,579.5c-.3,2,.9,4.9,-2.3,5.1c-2.9,.1,-2.4,-2.6,-2.4,-4.4c.1,-2.4,-.4,-6,2.8,-6c2.9,0,1.5,3.4,1.9,5.3Z" class="g1_1" />
<path d="M348.3,575.3c7.7,.2,10.8,5,8.3,11.3c-.4,1.1,-1,1.7,-2.2,1.6c-1.4,-.3,-1.6,-1.5,-1.7,-2.7c-.2,-3.7,.6,-7.7,-4.4,-10.2Z" class="g1_1" />
<path d="M389.4,579.3c5.2,1.6,1.9,6.5,3.6,9.4c-5.4,-.3,-6.3,-2.5,-3.6,-9.4Z" class="g1_1" />
<path d="M112.1,583c-.3,-.1,-.7,-.3,-1.1,-.4c-.2,-.7,-.3,-1.4,-.5,-2.1c0,-2.4,0,-4.8,0,-7.2c.1,-.8,.1,-1.6,.2,-2.3c.9,-1.4,2.2,-1.2,3.6,-1.1c1.9,4.8,2.1,9.3,-2.2,13.1Z" class="g1_1" />
<path d="M256.2,580.1c-.4,-1.4,-.9,-2.9,-1.3,-4.4c1.8,.2,4.1,-1.9,5.2,.4c1.2,2.4,.9,5.4,.1,7.9c-.5,1.5,-2.1,1.7,-2.9,-.1c-.5,-1.2,-.8,-2.5,-1.1,-3.8Z" class="g1_1" />
<path d="M413.1,588.8c-2.6,.6,-3.7,-.5,-3.7,-3c.1,-2.6,.1,-5.1,.1,-7.7c6.3,1.9,2.7,7,3.6,10.7Z" class="g1_1" />
<path d="M312.7,577.9c.7,-1,1.7,-1.2,2.9,-.8c.9,3,1.2,6,-.1,8.9c-.2,.4,-1.9,.6,-2.1,.3c-1.8,-2.6,-.4,-5.6,-.7,-8.4Z" class="g1_1" />
<path d="M64.9,574.8c1.9,-1.2,-.5,-5.3,3.5,-5.1c.9,3.8,2.2,7.7,-.2,11.5c-5.8,.3,-2.6,-4,-3.3,-6.4Z" class="g1_1" />
<path d="M817.9,333.7c3.6,.7,6.7,1.4,9.5,3.6c9.3,7.8,9.3,18.3,-.7,25.3c-8.8,6.2,-18.6,10.7,-28.2,15.7c-3.4,1.8,-3.4,-1,-4.4,-2.6c-1.2,-2.1,-2.5,-4,.8,-5.7c6.6,-3.2,13,-6.6,19.3,-10c2.3,-1.3,4.4,-2.7,6.4,-4.2c3.5,-2.6,6.1,-5.7,3.9,-10.5c-2.2,-4.8,-7.1,-7.3,-12.1,-6c-9,2.4,-16.9,7.4,-25.2,11.4c-2.6,1.3,-4.9,2.4,-6.8,-1.2c-1.5,-2.7,-1.6,-4.3,1.6,-5.9c7.8,-4,15.6,-8.2,23.1,-12.8c4,-2.4,9,-5,6,-11.5c-2.8,-5.9,-7.3,-7.8,-14.2,-5.7c-8.3,2.6,-15.7,7.1,-23.3,11c-3.2,1.6,-4.9,1.6,-6.9,-2c-2,-3.9,.1,-4.7,2.7,-6c11.3,-5.8,22.6,-11.7,34,-17.4c1.4,-.7,3.2,-2.9,4.6,-.7c1.3,2.1,4,4.5,1.8,7.3c-1.2,1.6,-1.7,1.9,.3,3.2c11,7.2,12.4,11.8,7.8,24.7Z" class="g2_1" />
<path d="M640.8,175.6c4.4,.1,12.6,-4.7,12.6,-7.8c-.1,-4.6,-4.9,-4.7,-7.9,-6.5c-1.9,-1.2,-4.3,-1.7,-6.4,-2.7c-3.1,-1.5,-5.3,.2,-7.2,2.2c-2.1,2,-3,4.6,-1.9,7.5c2,5,6.3,6.6,10.8,7.3m-7.4,-24.9c8.6,.2,13.9,4.2,19.8,6.8c1.7,.7,3.6,3.3,5.7,.9c1.6,-2,1.2,-4.4,.2,-6.7c-3.3,-6.9,-9.9,-9.1,-16.4,-11.5c-1.2,-.4,-4.3,1,-3.3,-2.4c.6,-2.2,1.4,-4.4,4.5,-4.4c17.3,-.3,28.8,16.9,21.1,32.1c-3.8,7.5,-8.4,14.6,-12.7,21.9c-.9,1.5,-2,3.4,-4.2,2.4c-2,-.9,-5,-1.6,-4.4,-4.6c.6,-3.5,-1.4,-2.9,-3.4,-2.8c-6.9,.1,-12.5,-2.6,-16.9,-7.9c-3.9,-4.6,-4.4,-9.5,-1.5,-14.8c2.9,-5.3,6.5,-9.4,11.5,-9Z" class="g2_1" />
<path d="M328.5,129.9c6.9,-2.3,13.8,-4.5,20.6,-6.7c2.9,-.9,3,-2.4,1.1,-4.6c-3.9,-4.5,-9.4,-5.9,-14.8,-3.4c-6.2,2.9,-8.3,7.1,-6.9,14.7M342,155.6c-10.1,.2,-16.4,-5.3,-20.4,-14c-4.8,-10.6,-3.7,-21.4,2.9,-28.1c6.8,-6.8,14.8,-9.5,24.2,-6.4c7.5,2.6,10.8,9.3,13.4,16.2c.9,2.4,-.7,3.3,-2.9,4c-8.4,2.5,-16.7,5.4,-25.2,7.9c-4.3,1.3,-4.6,3.1,-1.8,6.5c5.5,6.8,13.6,7.7,23.2,2.3c1.2,-.7,2.3,-1.5,3.5,-2.2c1.7,-1,3.2,-4.4,5.2,-2c1.9,2.2,1.4,5.4,-1.1,7.9c-4.2,4.2,-13.6,7.9,-21,7.9Z" class="g2_1" />
<path d="M751.3,238.7c-1.2,1.8,-7.7,-.9,-4.8,4.4c3.1,5.8,8.1,10.6,12.2,15.8c1.5,1.9,2.7,1.6,4,-.3c2.6,-3.8,3,-7.6,1,-11.7c-2.4,-5,-6.5,-7.7,-12.4,-8.2m22,13.7c.1,7.8,-4.3,12.8,-9.2,17.5c-2,1.9,-3.9,1.7,-5.8,-.7C753,262.3,747.3,255.8,742,248.9c-3.3,-4.2,-5.4,-2.9,-7.5,1.1c-3,5.7,-2.2,12.2,2.9,17.8c2.5,2.8,5.7,4.8,8.4,7.4c1.1,1,4.1,1.1,2.7,3.5c-1.2,2,-3.1,3.5,-5.9,2.7C725,276.5,718.5,252.7,731.2,239.7c13,-13.2,30.9,-11.8,39.4,2.9c1.8,3.2,2.8,6.5,2.7,9.8Z" class="g2_1" />
<path d="M500.5,131.5c-3.9,2.5,-6.8,4.6,-10.4,5.1c-11.1,1.6,-17.9,-3.5,-18.9,-14.7c-1,-10.7,.9,-21.3,1.1,-31.9c0,-4,3.1,-2.5,5.2,-2.6c2.6,-.2,4.1,.7,3.8,3.7c-1.1,9,-1.1,18.1,-1.1,27.2c.1,7.2,2.3,10.3,7.9,11c5.3,.7,11,-3.2,12.2,-8.9c1.9,-8.5,2.2,-17.2,2.4,-25.8c.2,-4.5,1.7,-5.8,6,-5.4c2.8,.4,3.6,1.5,3.4,4.2c-.9,12.9,-1.6,25.9,-2.6,38.9c-.2,1.9,.4,5.4,-3.3,5c-3,-.3,-7,.1,-5.7,-5.8Z" class="g2_1" />
<path d="M590.2,117.5c-4.7,-3.8,-9.3,-6.5,-15,-7.4c-3.3,-.6,-6.6,-.7,-8.3,2.4c-2,3.8,1,6.1,3.8,8.2c3.3,2.4,6.8,4.6,10,7.2c4.6,3.8,6.8,8.5,4.6,14.6c-1.9,5.3,-6.9,9.1,-13.1,9.1c-8.2,.1,-15.2,-3.5,-21.7,-8.1c-3,-2.2,-2.1,-5.6,-.4,-7.9c2,-2.9,3.6,.4,4.9,1.4c4,3,8.2,5.4,13.2,6.2c3.5,.7,6.7,0,8.5,-3.5c1.8,-3.5,-.8,-5.5,-3.1,-7.3c-3.7,-2.9,-7.7,-5.5,-11.4,-8.4c-4.1,-3.1,-6.2,-7.2,-4.6,-12.4c1.8,-5.6,5.5,-9.6,11.7,-10.1c7.8,-.7,14.5,2.3,20.7,6.9c3.6,2.7,2.4,5.7,.2,9.1Z" class="g2_1" />
<path d="M290.7,184.8c0,5.9,-6.3,13.2,-11.8,14.4c-1.9,.5,-3.1,-.4,-3.7,-2c-.5,-1.7,-2.4,-3.8,.4,-5.1c8.2,-3.8,6.5,-10.1,4,-16.4c-6.8,-17.1,-13.8,-34.2,-20.7,-51.2c-1.1,-2.5,-2,-4.4,1.8,-5.8c3.2,-1.1,4.7,-1.2,6.2,2.3c7.4,17.5,15.1,34.9,21.5,52.8c1.3,3.7,1.9,7.5,2.3,11Z" class="g2_1" />
<path d="M402.7,98.5c.4,-2.2,-1,-4.7,1.7,-5.5c2.1,-.5,4.8,-1.5,6.2,1.3c1.3,2.5,2.2,1.1,3.4,0c2.8,-2.6,5.9,-4.6,9.8,-5.1c2.4,-.4,5.1,-1.5,5.8,2.6c.6,3.5,-.5,4.5,-4.1,5c-8.4,1.1,-11.4,5.1,-11.4,13.5c-.1,8,1.3,15.7,2.2,23.5c.3,2.9,1,5.8,-3.7,6.4c-4.5,.5,-4.9,-2.3,-5.3,-5.2c-1.6,-12.3,-3.1,-24.6,-4.6,-36.5Z" class="g2_1" />
<path d="M688.8,223.1c-2.4,-.8,-3.7,-2.5,-5.1,-4.1c-1.6,-1.8,.3,-2.9,1.2,-3.9c13,-14.2,26,-28.4,38.9,-42.7c2.4,-2.7,4,-2,6.1,.1c1.8,1.7,3.4,2.9,1,5.5c-13.4,14.4,-26.6,28.9,-39.9,43.4c-.7,.6,-1.5,1.1,-2.2,1.7Z" class="g2_1" />
<path d="M426.1,486.7c-3.5,-.3,-3.9,2,-3.7,4.6c.3,3.2,-2.5,4.6,-4.2,4.6c-2.1,0,-1.3,-2.9,-1.1,-4.5c.7,-4.6,-2,-5.2,-5.5,-5.7c-3.4,-.4,-6.1,-.6,-6,4.3c.1,1.9,-.3,4.4,-3.6,4.3c-3.6,-.2,-3.4,-2.7,-3.2,-5c.4,-5.5,-3.5,-5.1,-7,-5.8c-4.5,-.8,-3.9,2.5,-4.4,5.1c-.4,1.7,.3,4.4,-2.8,4.2c-3,-.2,-3.6,-2.4,-3.7,-5c-.3,-5.7,-4.6,-9.2,-10.2,-7.8c-3.2,.9,-3.6,4.1,-3.6,7.1c-.1,1.1,.8,3,-1.4,3.2c-1.6,.1,-2.9,-.9,-3.4,-2.6c-.8,-2.8,1.5,-6.7,-1.5,-8.2c-3.4,-1.7,-7.6,-1.1,-11.5,-.8c0,-.8,0,-1.5,0,-2.3c1.4,-.1,2.7,-.2,4.1,-.2c10.4,.1,10.6,.3,11.6,10q1.6,-7.8,9.2,-7.9q7.8,0,10.1,10.6c1.6,-2.8,-1.9,-8.5,5.4,-8c9.8,.7,10.5,.8,11.9,10.5c.4,-.1,.9,0,1,-.2c1.6,-2.4,-.5,-6.6,1.8,-7.5c2.8,-1.2,7,-1.2,9.7,.1c4.4,2.3,9.2,-1.1,13.2,1.9c-.4,.3,-.8,.7,-1.2,1Z" class="g2_1" />
<path d="M875.8,582.7c1.1,-2.4,1.1,-5,1.1,-7.5c0,-16.2,.1,-32.3,.1,-48.4c0,-1.2,.1,-2.5,-.2,-3.5c-.7,-1.9,.2,-4.8,-2.4,-5.5c-2.7,-.8,-1.5,3.3,-3.7,3.7c-1.6,-1.3,-.2,-3.4,-1.4,-4.8c-2.4,.1,-1.2,3.3,-3.5,3.7c-1.3,-.6,-.2,-2.4,-1.4,-3.4c-.7,1.4,-1.4,2.8,-2.1,4.3c-2.9,-1.2,-1.3,-3.7,-2.2,-5.4c-2,-.2,-1.3,3.4,-3.4,2.7c-2,-.6,-.4,-2.9,-1.7,-4.3c-.7,1.6,-1.4,3.1,-2.1,4.7c-3,-1.3,-1.5,-3.9,-2.1,-5.7c.1,-.9,.2,-1.7,.3,-2.5c.4,-.2,.7,-.2,1.1,.1c.6,.2,1.1,.5,1.7,.7c5.5,.4,11,.5,16.4,1.4c4.9,.9,9.3,2.8,9.8,9.3c.5,5.5,-.8,11.3,1.5,16.7c-1.5,1.8,-.9,3.9,-1,5.9c-2,5,-.6,10.3,-1.5,15.4c-2.2,8.1,-.3,16.4,-1,24.6l.2,.4c-1.6,-.1,-3.2,-.2,-4.8,-.3c.8,-.8,1.5,-1.5,2.3,-2.3Z" class="g2_1" />
<path d="M851.1,510.8c-.1,.8,-.2,1.6,-.3,2.5c-3.4,1.2,-1.9,4.3,-2.1,6.5c-.7,10,-1.1,20,-1.7,30c0,0,-.3,0,-1.2,.2c-.7,-2.5,-.5,-5.1,.1,-7.6c1.1,-2.7,.6,-5.5,.4,-8.3c0,-6.3,-.1,-12.6,0,-18.9c.1,-2.5,-.7,-3.6,-3.3,-3.3c-5.1,.5,-11.2,-2.6,-14.1,4.9c-.7,1.8,-3.1,.8,-3.5,-.9c-1.3,-6.2,-6.4,-3.8,-10,-4.6c-4.1,-.9,-8.6,-1.9,-9.1,4.6c-.1,1.4,-1.1,2,-2.5,1.9c-1.1,-.1,-2.2,-.9,-2.1,-1.7c.4,-7,-4.6,-5.2,-8.4,-5.4c-2,-.2,-4,-.2,-5.9,-.3c2,-1.8,4.5,-1.2,6.7,-.9c7.6,1.2,15.1,.1,22.7,-.1c3.5,.5,7.5,-1.4,10.3,2.4c.2,.2,.8,.6,.9,.6c7.2,-7.1,15.4,-.8,23.1,-1.6Z" class="g2_1" />
<path d="M240.7,342.6c-.1,3.1,-.2,6.2,-.3,9.4c0,2.5,-1,3.9,-3.9,3.7c-2.6,-.1,-4.1,-1,-4.1,-3.8c0,-.2,0,-.3,0,-.5c-.7,-4.2,1.9,-9.7,-2,-12.2c-4.5,-2.9,-10.3,-3.6,-15.8,-3.7c-11.1,-.3,-11.8,-.9,-12.8,-12.1c-.2,-2,-1.3,-3.2,-2.5,-4.5c.8,-1.6,4.1,4,3.6,-1.3c2.5,-5.1,.6,-10.6,1.3,-15.8c.2,-1.9,-1.2,-4.5,1.9,-5.3c0,.7,0,1.5,0,2.2c-1.7,3.5,-.8,7.2,-.8,10.8c.1,4.9,0,9.7,-1,14.6c-1.2,5.6,1.6,8.3,7.2,8.5c6.9,.3,13.5,2.4,20.1,3.9c2.9,.7,2.1,3,2.6,4.7c1.3,3.8,-.6,8.3,2.5,12.2c2.7,-3.1,.9,-6.5,1.5,-9.6c.4,-1.8,-1.2,-4.7,2.6,-4.7c-.1,1.1,-.1,2.3,-.1,3.5Z" class="g2_1" />
<path d="M173.2,213.1c-1.7,-2.6,-4,-3.5,-6.8,-4.2c-.4,2.1,-1.2,4.5,.5,5.5c1.7,1.2,4.1,.4,6.3,-1.3m-9.3,-.7c.1,-8.6,1.2,-9.8,9.3,-10.7l1.4,-.8c.1,-.3,.3,-.5,.7,-.6c1,-1.3,.5,-2.8,.5,-4.2c-.6,-2.4,1.4,-3.4,2.4,-5c.4,.5,.9,1,1.3,1.5l-.1,.5c-.4,.8,-.9,1.7,-1.3,2.5c-2.7,7.3,-1.7,9.1,5.4,9.6c2.1,.2,4.2,.2,6.3,.3c-1.8,1.6,-4.1,.5,-6.1,1.1c-3.3,.4,-8.7,-1.5,-7.6,4.7c.8,4.4,-.9,4.8,-4.2,5.1c-1.2,.2,-3.1,-.2,-3.9,1.9c3.1,-.3,6,-.5,8.9,-.8c0,.6,-.1,1.2,-.1,1.8c-4,1,-9.1,-.7,-11,4.8c-4,-3.4,-.4,-8,-1.9,-11.7Z" class="g2_1" />
<path d="M268.9,375.4c-3.1,-.4,-4.8,.7,-4.7,4.1c.1,2.3,-.2,4.5,-.9,6.7c-2.1,-2.6,-1.2,-5.8,-1.4,-8.6c-.1,-1.4,-.5,-2.6,-1.8,-2.6c-1.5,-.1,-2,1.3,-1.8,2.5c.7,3.8,-2.3,9.2,5,10.4c-3.7,3.1,-6.3,2.1,-7.2,-1.6c-.7,-3.4,-.1,-7,-.1,-10.6c0,-1.2,.3,-2.3,1.8,-2.4c5.5,-.4,5.8,-4.5,6,-8.4c.3,-5.1,.1,-10.3,.6,-15.3c.3,-3.8,-1.6,-4.8,-4.8,-5v-2c5.3,-.2,8.3,1.5,7.2,7.7c-1,5.6,.3,11.3,-1.2,16.9c-.7,2.7,.9,4.9,3.3,6.3c0,.6,0,1.3,0,1.9Z" class="g2_1" />
<path d="M295.4,393.4c2.3,-2.1,2.7,-4,3.8,-5.4c1.5,-1.9,-1,-3.8,-1.5,-5.7c0,-.3,-1.1,-.7,-1.4,-.6c-2.2,1,-1.2,3,-1.3,4.6c-.1,2,.2,4,.4,7.1m30.4,-4.7c-.9,-2.7,-3.5,-2.9,-5.7,-3.4c-3,-.7,-6.1,-1.1,-9.2,-1.6c-9.2,-1.6,-9.1,-1.6,-11.2,7.1c-.5,2.3,-.9,5.1,-4,4.9c-3.2,-.2,-3.3,-3,-3.2,-5.3c.4,-5.6,.3,-10.9,-6.2,-13.3c12.8,1.9,25.7,3.7,38.2,7c2.4,.6,4.6,2.5,3.5,5.8c-.7,-.4,-1.4,-.8,-2.2,-1.2Z" class="g2_1" />
<path d="M161.6,270.3c.1,-5,.1,-10.1,.2,-15.2c4.5,-2,9.4,-.5,14.1,-1.3c2.3,.1,4.6,.1,6.9,.2c1.4,1.4,2.9,1.2,4.6,.6c5.7,.2,11.2,1.5,16.5,3.6c1.8,1.6,-1.2,1.6,-.9,2.7c-7.5,-1.3,-15,-2.5,-22.5,-3.8c-3.9,-3.6,-7.8,-2.8,-11.8,-.2c-2.1,.4,-3.8,.8,-3.8,3.8c.1,4.4,-.6,8.8,-1.1,13.2c-.7,-1.2,-1.4,-2.4,-2.2,-3.6Z" class="g2_1" />
<path d="M162.8,321.2c-.1,14.7,-.3,14.6,-14.5,11c-10.3,-2.7,-21,-4.4,-31.5,-6.5c1.4,-1.4,3.3,-.5,4.8,-1c10.5,1.3,20.8,3.4,31,6.1c6.4,1.7,6.9,1.8,7.4,-4.9c.3,-5.9,.4,-11.8,.5,-17.7c.3,0,.6,-.1,.9,-.1c1,4.3,-1.4,9,1.4,13.1Z" class="g2_1" />
<path d="M167.6,283.4c0,.2,-.1,.4,-.2,.7h17c0,-.3,0,-.5,0,-.7Zm-6.2,24.7c-.3,0,-.6,.1,-.9,.1c-.2,-8.3,-.4,-16.6,.3,-24.9c1.3,.9,2.1,.9,2,-.9c0,-1.4,-.1,-2.7,.9,-3.8c-.1,2.4,.6,3.1,3.3,2.8c9,-1.1,18,-.4,26.8,1.8l-7.4,3.7c-7.4,.8,-15.1,-1.7,-22.4,1.3c-3.2,-1.9,-2.4,.9,-2.4,2.2c-.2,5.9,-.2,11.8,-.2,17.7Z" class="g2_1" />
<path d="M96.7,323.2c-2.8,.1,-5.6,.2,-8.4,.3c-2,-1.5,-4,-1.8,-5.9,.3c-10,-2.3,-20,-3.1,-30.2,-1.6c-8.7,1.4,-8.8,1,-9,9.8c-.6,-1.6,-1.2,-3.2,-1.9,-4.8c-.7,-5.8,2.6,-6.4,7.5,-7.4c16.2,-3.2,31.9,2.6,47.8,1.6c.1,.6,.1,1.2,.1,1.8Z" class="g2_1" />
<path d="M782.3,522.4c.2,3.7,1.3,7.8,-4.9,7.5c-3.2,-.2,-1.5,4.6,-4,5.5c-1.8,-.6,-1.5,-1.9,-1.7,-3c-.3,-1.5,-.9,-2.7,-2.5,-2.8c-2.1,-.1,-1.8,1.6,-2.3,2.8c-.4,1.2,-.3,3,-2.2,3c-1.4,.1,-2,-.9,-2.2,-2.2c-.2,-1.6,.7,-4.2,-1.6,-4.4c-2.4,-.2,-1.4,3.2,-3.4,4.9c-.8,-3.1,-1.6,-5.6,-4.5,-6.5c.1,-.4,.1,-.8,.1,-1.1c7.2,-1,14.3,.7,21.4,1.4c4.8,.5,6.3,-.4,5.7,-5c-.1,-1.2,.1,-2.4,.2,-3.5c.7,1.1,1.3,2.3,1.9,3.4Z" class="g2_1" />
<path d="M349.3,476.4c0,.8,0,1.5,0,2.3c.1,9.4,.8,18.8,-.1,28.2c-2.1,-3.3,-.2,-7.1,-1.2,-10.6c0,-3.1,0,-6.1,0,-9.2c-.6,-1.8,-1.3,-3.5,-2.8,-4.7c-6.1,-8,-12.3,-15.9,-18.4,-23.8c.5,-.5,1,-.9,1.4,-1.4c4.7,5.3,9.5,10.5,14.1,15.8c1.9,2.2,3.9,3.9,7,3.4Z" class="g2_1" />
<path d="M175.9,253.8c-4.7,.8,-9.6,-.7,-14.1,1.3c0,-14.2,-.1,-28.5,2.1,-42.7c1.5,3.7,-2.1,8.3,1.9,11.7c.2,6,5.1,2.7,7.7,3.8c1.9,2.2,4.9,.2,7.4,2c-2.4,.1,-4.4,.3,-6.5,.4v.5c1.3,.2,2.6,.4,3.9,.6q-12.6,2.3,-13.7,10.6c-1.5,-3.4,.3,-7.3,-1.3,-10.6c-.4,4.9,-.4,9.7,-.4,14.6c-.1,1.5,0,2.8,1.9,2.9c-.2,3.1,1.1,4.5,4.3,4.4c2.3,-.1,4.5,.3,6.8,.5Z" class="g2_1" />
<path d="M208.6,212.4c.7,15.5,-.4,30.9,-1.2,46.3c-2.2,-3.7,1.5,-9.7,-4.7,-11.8c1.4,-.2,2.2,-.6,2.7,-2.3c1.8,-6.5,-2.5,-8.9,-7.3,-10.9c1.5,-2.2,.3,-3.3,-1.8,-3.1c-1.5,0,-2.6,.3,-2.9,-1.5c2.1,-.3,4.1,-.3,6.1,.6c4.8,2.2,6.5,.3,6,-4.5c.7,.2,1.9,.9,1.9,.1c0,-3.1,1.6,-6.4,-.9,-9.3v-3.7c.7,.1,1.4,.1,2.1,.1Z" class="g2_1" />
<path d="M729.3,524.3c-.5,.2,-1,.3,-1.4,.5c-.9,.3,-1,1.1,-1,1.8c-.1,.6,-.1,1.2,-.2,1.7c-.3,.7,-.6,1.3,-.9,2c-2.8,.7,-2.1,-1.6,-2.3,-2.9c-.3,-2.1,-.8,-4,-3.4,-4c-2.6,.1,-2.2,2.3,-2.5,3.9c-.2,1,-.3,2,-2,2.3c-1.4,-4,-2.2,-8.9,-8.7,-6.9c-3.4,1,-1.2,3.3,-1.8,6.6c-1.4,-3.8,-2.3,-6.4,-3.2,-8.9c2.8,2.7,5.2,-.8,8,-.6c6.6,.4,13,1.5,19.4,2.9c0,.5,0,1.1,0,1.6Z" class="g2_1" />
<path d="M656.1,516.7c-3.3,-.4,-6.9,-1.3,-6.8,4.1c0,.8,0,2,-1.6,1.8c-1.6,-.1,-2.3,-.9,-2.8,-2.4c-1.9,-6,-5.3,-11.7,-3.4,-18.4c.6,-2.1,-1,-3.6,-1.9,-5.3c3.3,-1,4.4,.2,4.6,3.7c.8,12.6,.9,12.5,13.7,14.1c.7,.1,1.3,.6,2,1c-1.4,.1,-3,-.3,-3.8,1.4Z" class="g2_1" />
<path d="M507.3,496.7c-3.4,-.7,-5,.4,-4.8,4.2c0,2.1,.2,5.2,-3.4,4.9c-3.4,-.2,-2.4,-3,-2.3,-4.9c.3,-4.4,-2.6,-4.5,-5.6,-5c-4.1,-.7,-2.8,2.6,-2.7,4.1c.1,4.1,-4.3,5,-5.2,8.5c-1.3,-1.7,-.7,-3.4,-.6,-5c.9,-.4,1.7,-.9,2.6,-1.3c1.4,-1,1,-2.5,.8,-3.7c-.9,-4.3,1,-5.4,4.8,-4.8c5.8,-.4,8.6,2.6,8.8,8.5c.9,-4.1,-.7,-10.1,6.8,-7.2c.3,.5,.6,1.1,.8,1.7Z" class="g2_1" />
<path d="M873.6,599.5c-13.3,-.2,-13.6,.2,-12.8,13.8c.4,6,.7,12,1,18c-.8,1.5,-.8,3.4,-2.3,4.5c-.4,-12.2,-.8,-24.4,-1.1,-36.5c.5,1.2,1.1,2.4,1.8,4c.6,-2.9,.3,-5.4,-.6,-7.8c4.8,1.5,9.9,1.3,14.8,2c.1,.8,0,1.6,-.8,2Z" class="g2_1" />
<path d="M179.5,192.6c-.4,-.5,-.9,-1,-1.3,-1.5l8.1,-10.6c.7,.9,-.2,3.3,2.4,2.3c5,5.4,11.3,10.1,10.8,18.9c-.1,2.1,.8,4.6,3,6.1c-2.7,.4,-5.2,-3.1,-7.9,-.2c-3.6,0,-7.3,.3,-10.9,-1c2,-.6,4.3,.5,6.1,-1.1c1,0,2,-.2,2.9,-.1c2.6,.4,4.3,-.1,4.7,-3.3c.3,-3.2,0,-5.4,-3.8,-5.4c.6,-1,3.3,-1.4,.9,-3.3c-6.7,-10.1,-7.8,-10.2,-15,-.8Z" class="g2_1" />
<path d="M457,490.5c-.3,2.1,-.4,4.2,-.8,6.3c-.4,1.6,-.3,4,-2.7,3.9c-2.3,-.2,-3,-2.2,-2.9,-4.3c.2,-2.8,.5,-5.4,-3.3,-6.4c-4.5,-1,-7.4,-.6,-7.3,4.9c0,.9,-.6,1.8,-1,2.7c-.2,-1.6,.6,-3.4,-1,-4.7c-1.1,-5.2,1.3,-6.8,6,-5.6c4.3,1.1,8.9,.9,13,3.2Z" class="g2_1" />
<path d="M633.5,496.7c-.9,1.6,-.8,6,-3.7,1.2c-1.1,-1.8,-3.4,-2.4,-5.2,-2.2c-2.6,.1,-1,2.8,-1.7,4.2c-.6,1.3,-.1,3.6,-2.3,3.5c-2,0,-2.4,-1.9,-2.6,-3.4c-.5,-4,-1.2,-7.7,-6.6,-6.1c.3,-.7,.7,-1.4,1.1,-2.1c7.2,.8,14.7,0,21,4.9Z" class="g2_1" />
<path d="M507.3,496.7c-.2,-.6,-.5,-1.2,-.8,-1.7c2.5,.3,5.6,-.9,7,2.6c1.9,-1.6,4.2,-1.4,6.4,-1.1c5.3,.6,10.7,1.5,16,2.2c-1.8,0,-3.6,.1,-5.4,.1c-2,-.9,-3.3,1.5,-5.2,1.1c-4,-1.7,-7.6,-2.9,-7.7,3.8c0,1.7,.1,4.4,-2.9,4.1c-2.5,-.3,-3.1,-2.2,-2.8,-4.4c.7,-3.8,-.7,-6.1,-4.6,-6.7Z" class="g2_1" />
<path d="M202.7,246.9c6.2,2.1,2.5,8.1,4.7,11.8c0,1.8,0,3.7,0,5.5c-.5,1.2,-1,2.3,-1.6,3.6c-1,-1.9,.8,-4.6,-1.7,-6c-.3,-.3,-.7,-.6,-1.1,-.9c-.3,-1.1,2.7,-1.1,.9,-2.7c2.9,-4.2,1.4,-7.1,-2.9,-9c-4.3,-2,-8.7,-3.4,-13.5,-2.2c-2.8,-4.8,-8.2,-1,-11.6,-3.7c9.2,-.8,18.1,.3,26.8,3.6Z" class="g2_1" />
<path d="M485.3,502.2c-.9,.4,-1.7,.9,-2.6,1.3c0,-1.4,-.2,-2.7,-.1,-4.1c.3,-3.4,-.4,-5.4,-4.6,-5.5c-3.6,-.1,-6.6,-.7,-6.2,4.5c.1,1.4,-.1,4,-2.6,3.8c-2.2,-.2,-2.9,-2,-3.1,-4.2c-.4,-2.6,1.6,-5.8,-1.6,-7.9c6.9,-.6,2.7,5.4,5.1,8.5c-1.4,-6.7,1.6,-8.1,6.8,-7.1c1.9,.3,3.9,.2,5.9,.3c4.2,2.5,1.9,6.9,3,10.4Z" class="g2_1" />
<path d="M325.8,388.7c.8,.4,1.5,.8,2.2,1.2c0,13,-.7,26,-2.4,38.9c-.5,-1,.3,-2.5,-1.2,-3.1c-.4,-12.4,.9,-24.7,1.4,-37Z" class="g2_1" />
<path d="M729.3,524.3c0,-.5,0,-1.1,0,-1.6c5.4,-.7,10.4,1,15.5,2.1c-.4,.3,-.8,.6,-1.1,.9c.1,.1,.2,.3,.4,.3c3.7,-.5,4.7,1.5,4.2,4.8c-1,-1.1,-.5,-3.6,-2.6,-3.5c-2,.2,-1.8,2.3,-2.2,3.7c-.3,1,-.7,2,-1.8,2c-1.2,.1,-1.5,-.9,-1.9,-1.8c-.7,-2.1,.3,-5.7,-2.9,-5.5c-2.6,.1,-1.2,3.8,-2.6,5.3c-.3,.3,-.6,.6,-1.1,1c-3.1,-1.7,0,-6.6,-3.9,-7.7Z" class="g2_1" />
<path d="M782.3,522.4c-.6,-1.1,-1.2,-2.3,-1.9,-3.4c-.5,-10.9,-.5,-11,10.3,-10.7c8.7,.2,17.4,.7,26.1,1.1c-7.6,.2,-15.1,1.3,-22.7,.1c-2.2,-.3,-4.7,-.9,-6.7,.9c-2.2,.2,-4.1,.4,-4,3.5c.1,2.8,-.7,5.7,-1.1,8.5Z" class="g2_1" />
<path d="M530.5,498.8c1.8,0,3.6,-.1,5.4,-.1c3.5,.5,7,.9,10.5,1.4c-.4,.7,-.8,1.5,-1.1,2.2c-.1,.4,0,.8,-.1,1.2c-.4,2.7,.6,6.8,-3.1,7.1c-4.3,.3,-2.5,-3.9,-2.9,-6.3c-.8,-5,-4.4,-3.9,-7.7,-3.9c-.5,-.4,-1.2,-.7,-1,-1.6Z" class="g2_1" />
<path d="M691.5,521.5c-3.3,-2.4,-6.1,-3.1,-6.8,2.3c-.2,1.3,-.1,3.1,-1.9,3c-1.5,-.1,-2,-1.9,-2.2,-3.2c-.6,-4,-2.6,-5.8,-6.7,-4.9c.3,-.6,.6,-1.2,.8,-1.9l.4,-.3c6.8,.3,13.5,.8,20.2,2.3c-1.9,.1,-3.7,.2,-3.8,2.7Z" class="g2_1" />
<path d="M595.5,500.3c-.3,-1.3,-.6,-2.6,-.8,-4c-.3,-2.3,-1.9,-2.8,-3.8,-2.8c-2.5,0,-1.9,2,-1.9,3.4c-.2,2.2,0,4.4,0,6.5c-.1,2.6,-1.9,2.4,-3.7,2.3c-1,-1.8,-3.5,-.5,-4.6,-2.1c2.3,-.2,4.9,.6,5.4,-3.5c1,-8.8,1.3,-8.8,11.2,-8.4c-1.7,2.6,.6,6.1,-1.8,8.6Z" class="g2_1" />
<path d="M324.4,425.7c1.5,.6,.7,2.1,1.2,3.1c-.1,2,-.1,4,-.2,6c-1.7,5,-1,10.1,-1,15.2c-.5,3.4,2.4,4.9,3.8,7.2c-.4,.5,-.9,.9,-1.4,1.4c-3.8,-2.9,-5.1,-6.7,-4.3,-11.4c1.3,-7.1,0,-14.5,1.9,-21.5Z" class="g2_1" />
<path d="M656.1,516.7c.8,-1.7,2.4,-1.3,3.8,-1.4c5.1,.3,10.3,-.7,15.2,1.2c0,0,-.4,.3,-.4,.3c-2.2,0,-5,-1.6,-5.6,2.3c-3.5,-2.1,-6.5,-3,-7.5,2.5c-.2,1.1,-.3,2.6,-1.7,2.7c-1.7,.1,-2.3,-1.4,-2.5,-2.7c-.2,-1.7,0,-3.5,-1.3,-4.9Z" class="g2_1" />
<path d="M572.6,503.5c-2.5,2.9,-.6,7.3,-3.5,10.1c-2.7,-1.1,-2.7,-3.5,-2.6,-5.8c0,-2.4,-.7,-4.2,-3.4,-4.5c1.1,-.3,2.2,-.7,3.3,-1c2.1,.3,4.5,-1.1,6.2,1.2Z" class="g2_1" />
<path d="M204.1,261.8c2.5,1.4,.7,4.1,1.7,6c.6,-1.3,1.1,-2.4,1.6,-3.6c.4,5.7,.1,11.3,-1,16.9c-1.7,1.2,-.8,3.1,-1.2,4.6c-.4,0,-.8,0,-1.2,0c.8,-8,.5,-15.9,.1,-23.9Z" class="g2_1" />
<path d="M194.6,207.6c2.7,-2.9,5.2,.6,7.9,.2c1.5,2.2,6.8,-.6,6.1,4.6c-.7,0,-1.4,0,-2.1,-.1c-1.5,-2.7,-4.8,-3.6,-6.6,-2.2c-1.8,1.4,-1.2,4.6,1,6.7c.4,.4,.6,.9,.9,1.4l-.1,.1c-2.4,-.6,-3.4,1.5,-5,2.5c-.3,.1,-.6,0,-.9,-.2c1.1,-1.9,1.3,-4,1,-6.2c-.1,-2.5,1.3,-5.4,-2.2,-6.8Z" class="g2_1" />
<path d="M438,492.9c1.6,1.3,.8,3.1,1,4.7c-3.4,1.1,-4.8,.7,-4.5,-2.4c.5,-6.6,-3.7,-7.6,-8.4,-8.5c.4,-.3,.8,-.7,1.2,-1c5.9,-.7,9.5,1.2,9.3,7.8c-.1,.5,0,1.4,.8,.9c.4,-.2,.4,-1,.6,-1.5Z" class="g2_1" />
<path d="M580.7,503.6c1.1,1.6,3.6,.3,4.6,2.1c-.3,.5,-.7,1,-1,1.5c-.1,.8,-.1,1.6,-.2,2.3c-.4,1.8,0,4.6,-2.3,4.6c-3.1,.1,-2.6,-3,-2.3,-4.9c.5,-3.1,-1.9,-4.1,-3.5,-5.8c1.6,.1,3.1,.2,4.7,.2Z" class="g2_1" />
<path d="M612.5,491.8c-.4,.7,-.8,1.4,-1.1,2.1c-.1,.5,-.1,.9,-.2,1.3c-1.7,1.5,-.5,3.9,-1.6,5.9c-.2,-1,-.4,-1.7,-.6,-2.4c-.8,-1.9,1.8,-5.4,-2.5,-5.7c-4.1,-.4,-3.8,2.9,-4.3,5.4c-.4,1.6,-.6,3,-2.6,3.3c-.6,-3.5,-.1,-6.8,1.3,-9.9c3.9,0,7.7,0,11.6,0Z" class="g2_1" />
<path d="M259.6,342.6v2c-6.3,-.5,-12.3,-3.7,-18.9,-2c0,-1.2,0,-2.4,.1,-3.5c6.4,.1,12.5,2,18.8,3.5Z" class="g2_1" />
<path d="M566.4,502.3c-1.1,.3,-2.2,.7,-3.3,1c-5.5,-.2,-2.9,5.1,-4.9,7.3c-3.8,-1.6,-2,-5.6,-3.3,-8.2c3.8,-1.7,7.7,-1.5,11.5,-.1Z" class="g2_1" />
<path d="M554.9,502.4c1.3,2.6,-.5,6.6,3.3,8.2c-.1,1.8,-1,2.5,-2.7,1.9c-1.6,-.6,-2.3,-2.1,-2.1,-3.7c.8,-6.7,-2.9,-7.5,-8.1,-6.5c.3,-.7,.7,-1.5,1.1,-2.2c3.1,-.2,6.2,-.6,8.5,2.3Z" class="g2_1" />
<path d="M121.6,324.7c-1.5,.5,-3.4,-.4,-4.8,1c-3.5,-.5,-7.1,-1.1,-10.7,-1.6c-2,-.3,-4.2,-1.3,-5.9,.7c.4,-1.1,.7,-2.3,1.1,-3.4c6.9,.4,13.7,1.7,20.3,3.3Z" class="g2_1" />
<path d="M206.1,296.5c-3.1,.8,-1.7,3.4,-1.9,5.3c-.7,5.2,1.2,10.7,-1.3,15.8c-.8,-.3,-1.6,-.7,-2.3,-1c3,-.3,2.3,-2.6,2.4,-4.5c.1,-6.5,.1,-12.9,.2,-19.4c1,0,2,.1,3,.1c0,1.2,0,2.5,-.1,3.7Z" class="g2_1" />
<path d="M887.6,544.9c-4.9,3.5,-2.6,-2.9,-4.4,-3.5c-2.2,.4,-1.4,2.7,-2.6,3.5c.1,-2,-.5,-4.1,1,-5.9c2.6,.4,6,-1.3,7.1,2.9c-1,.8,-1.2,1.8,-1.1,3Z" class="g2_1" />
<path d="M101.3,321.4c-.4,1.1,-.7,2.3,-1.1,3.4c-.4,3.9,-.9,7.8,-1.3,11.7c-.4,-1.2,-.8,-2.4,-1.1,-3.5c-.6,-3.3,1,-6.8,-1.1,-9.8c0,-.6,0,-1.2,-.1,-1.8c1.6,0,3.2,0,4.7,0Z" class="g2_1" />
<path d="M748.3,530.8c.5,-3.3,-.5,-5.3,-4.2,-4.9c-.2,.1,-.3,-.1,-.4,-.2c.3,-.3,.7,-.6,1.1,-.9c2.8,-.2,5.7,-.4,8.3,1.3c0,.3,0,.7,-.1,1.1c-1.8,.9,-1,3,-1.9,4.4c-1.9,2.8,-2.5,1.5,-2.8,-.8Z" class="g2_1" />
<path d="M600.9,491.8c-1.4,3.1,-1.9,6.4,-1.3,9.9c-1.9,1.1,-3.1,.2,-4.1,-1.4c2.4,-2.5,.1,-6,1.8,-8.6c1.2,0,2.4,0,3.6,.1Z" class="g2_1" />
<path d="M163.7,278.6c-1,1.1,-.9,2.4,-.9,3.8c.1,1.8,-.7,1.8,-2,.9c.3,-4.3,.6,-8.6,.8,-13c.8,1.2,1.5,2.4,2.2,3.6c0,1.6,0,3.2,-.1,4.7Z" class="g2_1" />
<path d="M691.5,521.5c.1,-2.5,1.9,-2.6,3.8,-2.7c.8,0,1.6,0,2.4,.1c-2.5,2.5,-2.1,6.4,-4.2,9.1c-2,-1.8,-1.9,-4.2,-2,-6.5Z" class="g2_1" />
<path d="M879.1,560.3c.1,6.7,.2,13.4,.4,20.2c-.8,1.4,.7,3.5,-1.4,4.4c.7,-8.2,-1.2,-16.5,1,-24.6Z" class="g2_1" />
<path d="M206.2,292.8c-1,0,-2,-.1,-3,-.1c-.3,-1.4,-1.4,-2,-2.5,-2.6c2.6,-.3,3,-3,4.5,-4.4c.4,-1.5,-.5,-3.4,1.2,-4.6c-.1,3.9,.8,7.8,-.2,11.7Z" class="g2_1" />
<path d="M41.3,327.3c.7,1.5,1.3,3.1,1.9,4.7c.6,.6,1.1,1.3,1.6,2c-.1,.4,-.1,.9,-.1,1.4c-2.6,.7,-4.6,-1.2,-7,-1.4c2.4,-1.6,3.6,-3.9,3.6,-6.7Z" class="g2_1" />
<path d="M188.7,182.8c-2.6,1,-1.7,-1.4,-2.4,-2.3c0,-.8,-.2,-1.7,.1,-2.3c.6,-1.6,-1.8,-4.4,.1,-4.6c3.7,-.3,1.9,3.2,2.2,5.2c.2,1.3,0,2.6,0,4Z" class="g2_1" />
<path d="M27.1,451.3c-3.6,.6,-7,-1,-10.5,-1.3c-.1,-.2,-.1,-.5,0,-.8c4.7,-.5,9.4,-.7,14,.9c-1.2,.5,-2.7,-.1,-3.5,1.2Z" class="g2_1" />
<path d="M268.9,375.4c0,-.6,0,-1.3,0,-1.9c2.8,.3,5.6,.7,8.4,1c1.5,.2,2.7,.4,2.4,2.4c-3.7,.5,-7.2,-.8,-10.8,-1.5Z" class="g2_1" />
<path d="M324.4,450c0,-5.1,-.7,-10.2,1,-15.2c.6,5.2,-.1,10.2,-1,15.2Z" class="g2_1" />
<path d="M205.3,309.5c0,-3.6,-.9,-7.3,.8,-10.8c.5,3.7,0,7.2,-.8,10.8Z" class="g2_1" />
<path d="M31.8,567.1c-.9,.1,-1.8,.2,-2.6,.3c-.7,-.7,-1.4,-1.5,-2,-2.2c1.5,0,3,.1,4.6,.1c0,.6,0,1.2,0,1.8Z" class="g2_1" />
<path d="M175.8,196.1c0,1.4,.5,2.9,-.5,4.2c.2,-1.4,.4,-2.8,.5,-4.2Z" class="g2_1" />
<path d="M281.6,377c-.8,1.3,-1.4,.7,-2,-.2c.8,-.8,1.3,.2,2,.2Z" class="g2_1" />
<path d="M853.9,511.6c-.6,-.2,-1.1,-.5,-1.7,-.7c.6,.2,1.1,.5,1.7,.7Z" class="g2_1" />
<path d="M174.6,200.9l-1.4,.8Z" class="g2_1" />
<path d="M634.7,772.7c-.2,3.7,1.5,7,3.3,10.3c3.5,6.2,7,12.3,10.8,18.3c2,3,.8,4.4,-1.7,6.1c-2.5,1.7,-4.1,1.3,-5.6,-1.3c-6.8,-11.3,-13.7,-22.4,-20.6,-33.7c-1,-1.6,-2.3,-3.4,.2,-5c1.8,-1.2,3.6,-3.9,6,-1.4c2.6,2.6,2.5,.1,3.3,-1.3c4.8,-9.9,10,-12.6,20.9,-9.7c3.3,.9,3.2,-1.1,3.5,-2.9c.7,-4.3,2.9,-7.7,6.2,-10.4c5.9,-5,13.8,-5,19.2,.5c8.4,8.7,13.6,19.7,19.9,29.9c1.9,3.1,-1.6,3.3,-3,4.5c-1.7,1.5,-3.3,1.8,-4.8,-.7c-3.1,-5.2,-6.4,-10.3,-9.8,-15.4c-2,-3.1,-4.1,-6.2,-6.4,-9.2c-2.5,-3.4,-5.8,-5.8,-10.1,-3.7c-4.6,2.2,-7.3,6.2,-6.2,11.6c.6,2.6,1.7,5.2,3,7.6c2.9,5.3,6.2,10.5,9.1,15.9c1.7,3,6.2,5.9,.1,9.4c-5.7,3.3,-5.6,-2.4,-7.2,-4.6c-4.8,-6.7,-9,-13.9,-13.5,-20.7c-2.4,-3.6,-5.7,-5.8,-10.1,-3.9c-4,1.8,-6.8,4.7,-6.5,9.8Z" class="g2_1" />
<path d="M207.6,683.7c-1,1.4,-1.8,2.6,-2.7,3.6c-3.7,4.6,-7.4,9.2,-11.1,13.7c-1.6,1.9,-1.6,3.3,.4,4.9c6.2,4.9,12.2,9.9,18.1,15.1c2.3,2,3.7,1.4,5.4,-.6c3.8,-4.5,7.8,-8.8,11.6,-13.4c2.1,-2.5,4,-2.3,6.4,-.3c2.5,2,2.1,3.6,.3,5.8c-11.8,14,-23.5,28,-35.2,42.2c-2.1,2.6,-3.6,2.4,-6.1,.3c-2.6,-2.2,-2.5,-3.7,-.4,-6.1c4.5,-5.2,8.6,-10.7,13.1,-15.9c2.1,-2.5,2.1,-4.2,-.5,-6.3c-5.8,-4.7,-11.5,-9.5,-17.1,-14.5c-2.5,-2.2,-4.2,-1.9,-6.2,.7c-4.4,5.5,-9.2,10.7,-13.6,16.3c-1.9,2.5,-3.3,2.7,-5.5,.4c-1.8,-1.8,-4.2,-2.8,-1.5,-5.9c12.1,-14.3,24,-28.7,36,-43c.9,-1,1.8,-3,3.8,-1.4c1.6,1.4,3.1,2.9,4.8,4.4Z" class="g2_1" />
<path d="M592.9,815.5c-.1,-6.9,-3.6,-14.4,-8.5,-18.2c-3.4,-2.5,-6.8,-3.6,-11,-1.6c-4.1,1.9,-7.4,4.5,-7.8,9.4c-.5,6.9,1,13.4,5.7,18.7c3.5,4.2,7.9,6.4,13.6,4.1c5.5,-2.3,8.1,-6.5,8,-12.4m8.9,.1c0,12.3,-9.6,21.1,-22.9,21c-12.2,0,-22.4,-13,-22.5,-28.4c-.1,-12,9.8,-21.4,22.6,-21.5c12.3,0,22.8,13.4,22.8,28.9Z" class="g2_1" />
<path d="M390.1,850.2c-6.6,.2,-11.9,-1.7,-17,-4.5c-2.3,-1.2,-4.2,-2.9,-3.9,-5.9c.3,-3.1,.6,-5.8,4.7,-2.9c4.4,3.1,9.3,5.2,14.7,5.6c3.4,.2,6.8,-.3,8.2,-4.2c1.4,-4,-1.5,-5.8,-4.2,-7.4c-4,-2.6,-8.1,-4.8,-12.1,-7.3c-4.5,-2.8,-6.3,-7,-5.1,-12.1c1.1,-5.1,3.8,-9.1,9.4,-10.2c7.8,-1.6,15.1,.2,22,4.1c3.2,1.9,3.6,5.1,2.1,7.6c-1.5,2.7,-3.7,-.2,-5.3,-.9c-4.2,-1.9,-8.4,-3.4,-13,-3.5c-3,0,-5.5,1.4,-6.5,4.2c-.9,2.7,1.3,4.4,3.2,5.7c3.1,2,6.4,3.8,9.6,5.7c8.1,5,10.6,9.6,8.7,16.2c-1.8,6.5,-7.4,9.9,-15.5,9.8Z" class="g2_1" />
<path d="M515.3,803.7c.7,.1,1.8,.2,3,.2c4,0,7.5,1,6.9,5.8c-.6,5.1,-4.3,1.5,-6.4,1.5c-5.2,.1,-10.2,0,-14.6,3.2c-5.3,3.9,-7,12.2,-4.2,20.6c2.3,6.9,6.8,10.3,13.9,10.5c4,0,7.7,-1.3,11.4,-2.7c1.4,-.6,3.3,-3.1,4.8,0c1.2,2.7,.2,4.9,-2.2,6.6c-12.4,9.1,-30.4,4,-36,-10.2c-7.6,-19.5,2.7,-35.4,23.4,-35.5Z" class="g2_1" />
<path d="M313.4,755.7c-.4,.9,-.8,1.8,-1.3,2.7c-8.7,16.7,-17.3,33.4,-26,50.1c-1.3,2.4,-2.2,4.8,-6.1,2.8c-3.8,-1.9,-2.8,-3.9,-1.5,-6.6c8.7,-16.7,17.3,-33.4,25.9,-50.2c.8,-1.6,1.4,-4.1,4.1,-2.5c1.8,1,4.3,1.1,4.9,3.7Z" class="g2_1" />
<path d="M328.9,831.7c-3.7,-.9,-6.4,-1.6,-4.5,-6.3c6.8,-17.5,13.4,-35.2,19.9,-52.8c1.1,-2.8,1.9,-4.4,5.4,-3.1c3.7,1.4,3.8,3.2,2.6,6.3c-6.7,17.4,-13.4,34.8,-20.1,52.2c-.6,1.6,-.9,4.1,-3.3,3.7Z" class="g2_1" />
<path d="M239.7,786.7c-1.6,-1.2,-3.5,-2.3,-5,-3.8c-1.8,-1.6,.2,-2.8,1,-4c7.1,-11,14.4,-21.9,21.4,-33c1.9,-3.1,3.5,-2.8,6,-1.1c2.7,1.8,3.2,3.3,1.3,6.1c-7.2,10.8,-14.2,21.7,-21.3,32.5c-.8,1.3,-1.5,2.8,-3.4,3.3Z" class="g2_1" />
<path d="M113.1,458.7c12,1.7,24.1,1.9,36.1,4.7c6,1.4,13.6,.8,20.4,1c2.2,.1,4.4,-.1,6.3,1.1c-1.6,.4,-3.6,-.6,-4.9,1.2c-1.4,.5,-3.2,-.6,-5.1,1.3h7.5v-.1c.7,1.5,2.5,.7,4.3,2.3c-4,.6,-7.2,0,-10.5,-.2c-8,-.6,-16.3,-1.1,-23.9,-2.5c-14.4,-2.9,-29,-3.1,-43.1,-6.7c3.9,-2.6,8.9,.7,12.9,-2.1Z" class="g2_1" />
<path d="M233.5,579.5c-.4,-1.9,1,-5.3,-1.9,-5.3c-3.2,0,-2.7,3.6,-2.8,6c0,1.8,-.5,4.5,2.4,4.4c3.2,-.2,2,-3.1,2.3,-5.1M252.3,576c-4.1,-2.1,-8.6,-2.5,-13.1,-2.5c-1.4,-.1,-3.3,.2,-2.9,1.9c.6,2.5,1.8,.7,2.8,-.1c.7,-.6,1.5,-.5,1.7,.5c.2,1,-.1,2.2,-1.1,2.5c-3,.9,-3.9,3.1,-4.3,6.1c-.4,2.6,-2.4,3.3,-4.9,2.8c-2.4,-.5,-4.1,-1.2,-4.2,-4.5c-.2,-9.3,-.4,-9.3,-9.5,-9.3c-9.6,.1,-9.7,.1,-10.3,9.6c-.1,2.3,-.4,4,-3.2,3.4c-2.3,-.4,-6,1.5,-6.3,-3.1c0,-.4,0,-.8,0,-1.2q-.8,-9.8,-10.7,-10c-5.7,0,-11.4,.2,-17,-.3c-5.4,-.4,-7,1.9,-6.7,6.9c.1,3.1,.4,6.3,-.7,9.3c-.9,-2,.4,-4.5,-1.4,-6.4c-.4,-11.7,-.3,-12,11.6,-11.8c7.4,.1,14.9,.7,22.3,.8c3.7,0,5.3,1,5.2,5c-.1,2.9,-.9,7.9,2.4,8c3.6,0,3.2,-4.9,3.1,-8c-.3,-6.3,4,-4.3,7.2,-4.4c8.7,1.8,17.5,.6,26.2,.8c4.7,-.5,9.4,.3,13.9,1.4c0,.8,-.1,1.7,-.1,2.6Z" class="g2_1" />
<path d="M348.3,575.3c5,2.5,4.2,6.5,4.4,10.2c.1,1.2,.3,2.4,1.7,2.7c1.2,.1,1.8,-.5,2.2,-1.6c2.5,-6.3,-.6,-11.1,-8.3,-11.3m-.4,-4.4c2,2.5,4.9,2.1,7.6,2.2c11.2,.2,22.5,.5,33.8,1.6c-1.9,1.1,-1.6,2.1,.2,3c0,.5,0,1,-.1,1.6c-2.7,6.9,-1.8,9.1,3.6,9.4h-.1c.1,3.8,-2.8,2.3,-4.6,2.3c-2,.1,-2.3,-1.6,-2.5,-3.3q-1.4,-9.4,-11,-9.5c-1.4,0,-2.8,-.1,-4.1,-.1c-3.2,0,-6.7,-1,-9.4,.2c-3.2,1.4,-1.1,5.6,-2,8.5c-.7,2.5,-1.2,4.5,-4.4,4.1c-2.9,-.3,-5.2,-1.3,-4.7,-4.7c.9,-5.8,-.6,-9.2,-8.7,-8c5.6,-4.1,3.5,-8.9,4.4,-13.1c1.9,1.5,.2,4.3,2,5.8Z" class="g2_1" />
<path d="M609,498.7c.2,.7,.4,1.4,.6,2.4c1.1,-2,-.1,-4.4,1.6,-5.9c-.4,13.7,-.6,27.5,-1.1,41.2c-.8,20.2,-1.7,40.4,-2.5,60.6h-1.9c.5,-20.6,.7,-41.2,1.7,-61.8c.5,-12.2,-.5,-24.4,1.6,-36.5Z" class="g2_1" />
<path d="M169.8,387.4c-2.8,.2,-5.6,.2,-8.3,-1c3.6,.2,6.8,.2,4.9,-5.1c-.3,-.7,-.6,-2,.7,-2.5c1.4,-.5,2.1,-1.6,.8,-2.4c-1.6,-1.1,-2.2,.7,-3,1.8c-4.7,-3.1,-6.3,-8.1,-7.9,-13.1c-.2,-.3,-.3,-.6,-.3,-.9c.1,-.2,.2,-.4,.3,-.7c1.2,.2,2.3,.4,3.5,.6q13.1,2.3,16,-11c1,5.6,.4,10.3,-.3,15c-.6,4.6,-.9,9.3,-1.3,14c0,-4,-1.7,-7.6,-3.5,-11.3c-1,3.5,0,6.2,1.7,9c2.3,3.8,-4.8,3.4,-3.3,7c.1,.2,0,.4,0,.6Z" class="g2_1" />
<path d="M44.7,335.4c0,-.5,0,-1,.1,-1.4c6.5,.9,13.1,1.9,19.7,2.7c4.7,.5,7.2,2.4,6.5,7.7c-.3,3,.5,6.2,.8,9.3c.3,2.7,2,3.2,4.2,2.8c2.1,-.4,2.1,-1.7,2,-3.8c-.1,-3.5,-2.3,-8.1,1.6,-10.3c2.8,-1.6,2.6,-4,3.9,-6.1c.4,1.3,-.2,2.9,1.2,3.8c-.1,.8,0,2,-.3,2.2C80,344.3,80,348,79.9,352c-.1,2.7,.9,7,-3.7,7c-4.6,0,-7.4,-2,-7.3,-7.6c.2,-11.8,0,-11.8,-11.6,-13.5c-4.3,-.6,-8.6,-1,-12.6,-2.5Z" class="g2_1" />
<path d="M27.1,451.3c.8,-1.3,2.3,-.7,3.5,-1.2c15.7,1.1,31.5,2.8,47.1,5c1.6,1.6,3.9,.3,5.5,1.2c2.5,1.4,.5,1.8,-.7,2.2c-.4,0,-.8,-.1,-1.2,-.1c-2.6,-1.9,-5.5,-.9,-8.2,-1.1c-15.4,-1.4,-30.8,-3.4,-46,-6Z" class="g2_1" />
<path d="M149.9,582.8c-.6,-10.3,-.6,-10.4,-11,-11.3c-4.8,-.5,-9.8,-.1,-14.7,-.7c-4.8,-.7,-6.9,.8,-6.6,5.7c0,.9,-.6,1.9,-.9,2.8c.1,-2.6,.2,-5.3,.1,-7.9c-.1,-1.5,-.2,-3.5,-2.5,-1.5c-1.4,-.1,-2.7,-.3,-3.6,1.1h-2.2c-.4,-2.4,.2,-3.8,3,-3.6c12.7,.8,25.4,1.6,38.1,2.3c2.6,.1,2.6,1.8,2.6,3.6c0,4.7,0,9.4,0,14.1c-2,-.9,-.5,-3.6,-2.3,-4.6Z" class="g2_1" />
<path d="M588.7,642.5c.1,-8.4,.3,-16.8,.5,-25.3c.6,0,1.2,0,1.8,.1c0,1,0,2.1,0,3.2c-2.1,7.5,-.6,15.1,-.8,22.7c-.3,2.9,1,5.2,2.8,7.4c7.4,9.2,14.7,18.6,22,27.9c-.4,.4,-.8,.8,-1.2,1.3c-9.5,-11.8,-19,-23.6,-28.5,-35.4c.4,-.4,.8,-.8,1.1,-1.2l.1,.1c.4,.9,1,1.8,2,1.3c.3,-.2,.1,-1.4,.2,-2.1Z" class="g2_1" />
<path d="M171,466.7c1.3,-1.8,3.3,-.8,4.9,-1.2c18.8,1.9,37.7,3.8,56.5,5.7c-.1,.8,-.2,1.6,-.3,2.3c-7.9,-.9,-15.8,-2,-23.8,-2.6c-11.6,-.8,-23.2,-3.2,-34.9,-3v.1c-.1,-1.6,-1.6,-.8,-2.4,-1.3Z" class="g2_1" />
<path d="M286.3,570c-6.7,.7,-13.5,-1.2,-21.6,1.4c3.5,.7,5.5,1.1,7.6,1.5c-.4,.6,-.6,1.2,-.7,1.2c-8.7,-1.9,-9.3,3.5,-8.8,9.8c.2,2.9,-1.2,3.7,-3.9,3.7c-2.6,0,-4.9,0,-4,-3.7c1.4,-.9,1,-2.5,1.3,-3.8c.3,1.3,.6,2.6,1.1,3.8c.8,1.8,2.4,1.6,2.9,.1c.8,-2.5,1.1,-5.5,-.1,-7.9c-1.1,-2.3,-3.4,-.2,-5.2,-.4c-1,-.4,-1.2,-1.3,-1.3,-2.2c3,-.4,6.3,.2,7.5,-4c.4,-1.8,2.6,-1.1,4.1,-1.1c7.6,0,15.1,.1,22.7,.1c-.6,.5,-1.1,1,-1.6,1.5Z" class="g2_1" />
<path d="M859.6,595.5c.9,2.4,1.2,4.8,.6,7.8c-.7,-1.6,-1.3,-2.8,-1.8,-4c-2.8,-5.1,-7.1,-8.9,-10.8,-13.1c-2.3,-2.7,-3.4,-5.3,-3.1,-9c.6,-6,.6,-12,.9,-18.1c.2,0,.5,.1,.8,.1c.6,3.9,-.7,8,1,11.8q.3,11.3,12,11.7c1.9,0,3.9,.2,5.8,.3c0,.6,0,1.1,0,1.7c-1.1,0,-2.2,-.1,-3.3,-.2c-1.5,-1.2,-3.3,-.7,-5,-.4h-7.3c2.4,4.5,6.2,7,8.8,10.3c.5,.4,.9,.7,1.4,1Z" class="g2_1" />
<path d="M200.6,316.6c.7,.3,1.5,.7,2.3,1c.5,5.3,-2.8,-.3,-3.6,1.3c-4.7,-.8,-9.4,-1.7,-14.1,-2.5c-5.5,-1.6,-11,-1.7,-16.6,-.1c-3.1,.3,-6.2,.5,-5.8,4.9c-2.8,-4.1,-.4,-8.8,-1.4,-13.1c0,-5.9,0,-11.8,.2,-17.7c0,-1.3,-.8,-4.1,2.4,-2.2c-.1,.4,-.2,.7,-.3,1c-1.3,8,-2,15.9,.3,23.7c1.5,1.4,3,1.3,4.7,.2c1.5,0,3.1,0,4.6,0c1.2,1.1,2.4,1,3.6,0h3.6c2.7,1.2,5.5,.9,8.4,.9c4.1,-.2,7.9,1.1,11.7,2.6Z" class="g2_1" />
<path d="M514.4,580.6c13.2,-1,26.4,.9,39.6,1.4c2.4,.1,8.1,-.5,6.3,5.7c-.6,-.1,-1.2,-.1,-1.9,-.1c-.2,-3.3,-2.9,-3.8,-5.1,-3.6c-13.7,.8,-27.3,-2.1,-41,-1.1c.7,-.8,1.4,-1.5,2.1,-2.3Z" class="g2_1" />
<path d="M348,496.3c1,3.5,-.9,7.3,1.2,10.6c.7,15.5,-.7,30.9,-1.3,46.3c-1.9,-2,.2,-5.1,-2,-7c.6,-16.7,.5,-33.3,2.1,-49.9Z" class="g2_1" />
<path d="M449.8,856.8c-5.3,1.2,-4.7,-2.2,-4.9,-5.5c-.3,-4.2,.8,-5.8,5.4,-5.8c5.2,.1,4.9,3.1,5,6.5c.2,4.2,-1.6,5.9,-5.5,4.8Z" class="g2_1" />
<path d="M389.5,577.7c-1.8,-.9,-2.1,-1.9,-.2,-3c10.3,.2,20.6,.6,30.9,2.1c-1.4,.1,-2.7,.1,-4,.2c-.8,0,-1.7,0,-1.6,1.1c.1,1.2,1.3,1.1,2.2,1.3c-1.4,3.7,1,7.9,-1.5,11.4c-.1,-1.1,-.1,-2.2,-.2,-3.3c-.7,.4,-1.3,.8,-2,1.3c-.9,-3.7,2.7,-8.8,-3.6,-10.7c-6.7,-.1,-13.3,-.3,-20,-.4Z" class="g2_1" />
<path d="M786.1,575.7v44.9c-.6,0,-1.2,0,-1.8,0c-1.2,-12.6,-.7,-25.2,0,-37.9c.2,-2.3,-.9,-5.2,1.9,-6.9Z" class="g2_1" />
<path d="M82.5,458.5c1.2,-.4,3.2,-.8,.7,-2.2c-1.6,-.9,-3.9,.4,-5.5,-1.2c11.9,.3,23.6,2.2,35.4,3.6c-4,2.8,-9,-.5,-12.9,2.1c-6.1,.6,-11.9,-1.1,-17.7,-2.3Z" class="g2_1" />
<path d="M586.4,643.2c-.3,.4,-.7,.8,-1.1,1.2c-9.4,-10.7,-18.4,-21.8,-26.9,-33.3c.7,0,1.4,.1,2.1,.1c8.7,10.7,17.3,21.3,25.9,32Z" class="g2_1" />
<path d="M275.9,732.9c-1.8,2.5,-2.4,6.5,-5.9,6.7c-2.1,.2,-5.6,-1.9,-5.3,-4.4c.3,-2.6,1.7,-6.3,5.1,-6.5c2.3,-.1,4.6,1.8,6.1,4.2Z" class="g2_1" />
<path d="M108.5,571h2.2c-.1,.7,-.1,1.5,-.2,2.3c-1.2,2.4,-1.3,4.8,0,7.2c.2,.7,.3,1.4,.5,2.1c-1.8,.5,-3.6,.9,-4.9,2.3c-2.1,-1.1,-6.3,-1.4,-1.7,-4.9c1.3,-.9,1.4,-3,.3,-3.5c-2.9,-1.5,.7,-8.2,-5.7,-6.8c-2.6,.6,-5.4,0,-8.2,-.1c2.9,-2.1,6.3,-.1,9.3,-1.4c5.7,-.7,6.8,2,5.1,6.9c-.4,1.1,-.8,2.2,-.7,3.3c0,1.3,.3,2.9,2,3.1c2,.1,1.8,-1.6,1.8,-2.9c.1,-2.5,.2,-5.1,.2,-7.6Z" class="g2_1" />
<path d="M514.4,580.6c-.7,.8,-1.4,1.5,-2.1,2.3c-2.2,2.4,-.6,5.3,-1.1,7.9c-.3,1.1,-.4,2.3,-2,2.5c-1.5,.2,-2.5,-.9,-2.5,-1.9c-.2,-12,-9.3,-9.1,-16.2,-9.8c-1,-.1,-1.9,-.2,-2.9,-.2c3.3,-1.9,7.1,-.2,10.5,-1.1c1.2,0,2.4,.1,3.5,0c4.1,-.5,6.7,.5,6.2,5.4c-.1,1.3,.4,2.7,1.3,3.3c3,-2.2,-3.8,-9.8,5.3,-8.4Z" class="g2_1" />
<path d="M157,365.1c1.6,5,3.2,10,7.9,13.1c.4,3,.1,5.8,-3.7,6c-4.3,.2,-2.6,-3.4,-3.1,-5.5c-.3,-1.5,-.5,-2.8,-2.1,-3.3c-.5,-1.9,1.2,-4.3,-1.5,-5.7c0,-.7,0,-1.4,0,-2.2c.5,-.1,.9,-.3,1.4,-.4Z" class="g2_1" />
<path d="M86.3,583.5c2.3,5.6,3.2,11.4,3.2,17.3c0,1.9,-.9,3.4,-3.2,3.3C83.9,603.9,83,602,83.7,600.4c2.5,-5.4,1.8,-11.2,2.6,-16.9Z" class="g2_1" />
<path d="M413.1,588.8c.7,-.5,1.3,-.9,2,-1.3c.1,1.1,.1,2.2,.2,3.3c-8,.7,-8.3,.7,-8.1,-6.8c.1,-3.9,-1.1,-5.3,-4.9,-4.8c-1.1,.2,-2.3,.2,-3.5,0c-3.4,-.4,-5.5,.4,-4.9,4.6c.2,1.6,.6,3.5,-1,4.9h.1c-1.7,-2.9,1.6,-7.8,-3.6,-9.4c.1,-.6,.1,-1.1,.1,-1.6c6.7,.1,13.3,.3,20,.4c0,2.6,0,5.1,-.1,7.7c0,2.5,1.1,3.6,3.7,3Z" class="g2_1" />
<path d="M272.6,587.5c3.4,6.8,1.9,12.6,2.6,18.2c.2,1.8,-1.3,2,-2.8,2c-1.6,0,-2.8,-.6,-2.6,-2.3c.8,-5.5,1.7,-11,2.8,-17.9Z" class="g2_1" />
<path d="M156,375.4c1.6,.5,1.8,1.8,2.1,3.3c.5,2.1,-1.2,5.7,3.1,5.5c3.8,-.2,4.1,-3,3.7,-6c.8,-1.1,1.4,-2.9,3,-1.8c1.3,.8,.6,1.9,-.8,2.4c-1.3,.5,-1,1.8,-.7,2.5c1.9,5.3,-1.3,5.3,-4.9,5.1c-9.4,-.6,-10.1,-2.1,-7,-14.2v10.2h.8c.2,-2.3,.5,-4.6,.7,-7Z" class="g2_1" />
<path d="M498.1,580.3c-3.4,.9,-7.2,-.8,-10.5,1.1c-7.5,0,-15,-.1,-22.4,0c-2.6,0,-5.2,-.5,-7.4,1.4c-.8,-.1,-1.6,-.1,-2.4,-.1c2.6,-4.1,7.2,-2.9,10.6,-3.1c10.6,-.8,21.4,-1.1,32.1,.7Z" class="g2_1" />
<path d="M584.3,507.2c.3,-.5,.7,-1,1,-1.5c1.8,.1,3.6,.3,3.7,-2.3c4.5,1.2,5.7,3.8,5,8.5c-.8,6,-.2,12.1,-.4,18.2c0,1.9,.9,4,-1,5.5c-.6,-3.2,1,-6.6,-1.2,-9.6c0,-4.2,-.4,-8.5,-.1,-12.8c.4,-5.4,-1.6,-7.6,-7,-6Z" class="g2_1" />
<path d="M308.1,576.7c-3.1,-.4,-6.3,.9,-9.5,-.8c-2,-1,-3.3,.3,-3.9,2.8c-.6,2.4,.2,5.4,-2.2,7.4c-.4,-.4,-.9,-.8,-1.3,-1.1q1.2,-7.5,-1.7,-10.6c8.4,-2.7,16.4,.9,24.5,.2c-1.6,2,-4.3,.2,-5.9,2.1Z" class="g2_1" />
<path d="M590.3,573.3c-.3,-11.9,-.3,-23.8,.9,-35.6c.1,2.9,.2,5.7,.2,8.6c.1,.9,.4,1,.8,.3c.2,-.5,.2,-1.1,.2,-1.7c.7,9.5,0,19,-.2,28.5c-.6,0,-1.3,0,-1.9,-.1Z" class="g2_1" />
<path d="M607.6,599.3c1,11.9,-1.4,23.6,-2.1,35.4c-1.4,-7.5,-1.2,-15,-.1,-22.4c.6,1,-.5,2.5,.9,3.2c1.3,-5.3,-.8,-10.9,1.3,-16.2Z" class="g2_1" />
<path d="M455.4,582.7c.8,0,1.6,0,2.4,.1c.3,5.1,-.8,8.7,-7.3,8.3c-3.8,-.2,-6,-1,-5.7,-5.3c.2,-1.8,-.4,-3.4,-2.2,-4.3c1.2,-.4,2.4,-.8,3.6,-1.2c1.3,1.1,1,2.8,1.1,4.3c.1,2.5,1,3.8,3.8,4c3.2,.2,3.2,-1.8,3.3,-4c0,-.7,.7,-1.3,1,-1.9Z" class="g2_1" />
<path d="M420.9,589.3c2.8,6.2,2.8,11.2,2.8,16.2c0,1.5,.3,3.3,-2.2,3.2c-2.5,-.2,-3.8,-2.2,-3,-4c2.1,-4.4,1.1,-9.2,2.4,-15.4Z" class="g2_1" />
<path d="M591,617.3c-.6,-.1,-1.2,-.1,-1.8,-.1c-.2,-5.6,-.7,-11.2,.5,-16.8c2.3,-1.5,1.2,-3.8,1.4,-5.8c.8,-5.9,-.8,-11.9,1.1,-17.8c.8,13.5,-.6,27,-1.2,40.5Z" class="g2_1" />
<path d="M261.9,477.2c-8.3,-1.1,-16.7,-2.3,-25,-3.4c9.3,-1.7,18.3,-.3,27.4,1.2c-.8,.8,-1.6,1.5,-2.4,2.2Z" class="g2_1" />
<path d="M286.3,570c.5,-.5,1,-1,1.6,-1.5c9.1,.1,18.1,.2,27.2,.3c0,.7,0,1.4,0,2.1c-9.6,-.2,-19.3,.8,-28.8,-.9Z" class="g2_1" />
<path d="M446.2,580.3c-1.2,.4,-2.4,.8,-3.6,1.2c-4,-1.4,-5.8,0,-6,4.3c-.1,2.1,.5,4.8,-2.8,5.5c-1.3,.4,-2.6,1.6,-3.4,-.1c-1.1,-2.5,1.4,-1.3,2.1,-1.9c2.9,-2.7,2.3,-5.6,.4,-8.6c.1,-.5,.2,-1,.3,-1.4c4.3,.6,8.8,-1.8,13,1Z" class="g2_1" />
<path d="M241.6,385.8c.7,4.8,.3,9.7,-.4,14.5c-.1,1.4,-.8,2.8,-2.6,2.5c-2.2,-.3,-1.5,-2,-1.3,-3.2c.9,-4.7,1.9,-9.4,2.8,-14.1c.5,.1,1,.2,1.5,.3Z" class="g2_1" />
<path d="M154.6,364c.8,-6.8,1.6,-13.5,2.3,-20.2c.2,-1.6,.4,-2.7,2.3,-2.3c.4,.7,.8,1.5,1.3,2.3c-1.2,6.6,-2.3,13.2,-3.5,19.7c-.1,.3,-.2,.5,-.3,.7c-.7,-.1,-1.4,-.2,-2.1,-.2Z" class="g2_1" />
<path d="M319.7,576.8c-1.5,2.3,-1.1,4.9,-1,7.3c.1,4.1,-2,4.9,-5.4,4.9c-4.4,0,-3,-2.9,-2.8,-5.3c1.6,-1.6,-.1,-4.4,2.2,-5.8c.3,2.8,-1.1,5.8,.7,8.4c.2,.3,1.9,.1,2.1,-.3c1.3,-2.9,1,-5.9,.1,-8.9Z" class="g2_1" />
<path d="M31.8,567.1c0,-.6,0,-1.2,0,-1.8c1.9,0,3.9,.1,5.8,.1c3.5,1.5,7.2,.6,10.8,.7c3.1,.8,6.9,-1.8,9.6,1.7c-3.1,1.7,-6.3,.5,-9.4,.4c-5.6,-.1,-11.2,-.7,-16.8,-1.1Z" class="g2_1" />
<path d="M279.7,393.3c0,5.1,0,9.1,-.1,13.1c0,1.3,-.5,2.4,-2,2.4c-1.7,0,-1.6,-1.3,-1.7,-2.5c-.2,-4.2,-2,-8.8,3.8,-13Z" class="g2_1" />
<path d="M315.1,570.9c0,-.7,0,-1.4,0,-2.1c1.2,0,2.3,.1,3.5,.1c2.1,1.5,4.5,.8,6.8,.9c1.6,5.7,6.8,4.7,10.8,5.9c-1.7,2,-4,.6,-6,1.2c-1.2,0,-2.4,-.1,-3.5,-.2c-.8,-2.7,-3.1,-1.9,-4.9,-2.3c-.4,-1,3.7,-.8,.7,-2.2c-2.2,-1,-4.9,-.9,-7.4,-1.3Z" class="g2_1" />
<path d="M73.1,569.8c-.2,2.3,-.2,4.7,-.4,7c-.8,7.5,-1.7,8.1,-9.3,6c1.6,-.7,3.9,.8,4.8,-1.6c2.4,-3.8,1.1,-7.7,.2,-11.5c1.4,-.1,2.9,-.2,4.3,-.3Z" class="g2_1" />
<path d="M97.8,333c.3,1.1,.7,2.3,1.1,3.5c0,7.4,0,14.8,0,22.2C95.6,350.2,96.7,341.6,97.8,333Z" class="g2_1" />
<path d="M117.1,613.3c-2.7,-2.5,-1.6,-5.8,-1.4,-8.7c.1,-2.1,2.2,-1.7,3.7,-1.9c1.9,-.1,3.5,.2,4,2.4c.4,2.4,.3,4.7,-.4,7c-.4,1,-1.1,1.8,-2.2,1.3c-1,-.6,-.9,-1.4,-.1,-2.4c.4,-.5,.6,-1.4,.6,-2.1c-.1,-1.4,.7,-3.7,-1.7,-3.7c-1.9,.1,-2.7,2.4,-2.5,4c.1,1.3,1.7,2.6,0,4.1Z" class="g2_1" />
<path d="M329.2,610.1c0,2.8,-.1,4.8,-3,4.6c-3.5,-.2,-2.9,-3,-3,-5.3c0,-1.9,-.4,-4.2,2.6,-4.3c4.2,0,2.6,3.6,3.4,5Z" class="g2_1" />
<path d="M433.2,579.3c-.1,.4,-.2,.9,-.3,1.4c-2.9,-.9,-1.3,2.6,-2.8,3.2c-2.6,-7.2,-8.7,-3.6,-13.3,-4.5c-.9,-.2,-2.1,-.1,-2.2,-1.3c-.1,-1.1,.8,-1.1,1.6,-1.1c1.3,-.1,2.6,-.1,4,-.2c4.5,-.1,8.9,.2,13,2.5Z" class="g2_1" />
<path d="M160.5,343.8c-.5,-.8,-.9,-1.6,-1.3,-2.3c5.9,.1,11.4,1.9,17,3.5c.6,.2,2.5,.8,1.7,2.3c-.6,1,-1.6,.6,-2.9,0c-4.6,-2.2,-9.6,-2.7,-14.5,-3.5Z" class="g2_1" />
<path d="M100.1,568.2c-3,1.3,-6.4,-.7,-9.3,1.4c-5.9,.1,-11.8,.1,-17.7,.2c0,0,-.4,-.4,-.4,-.4c.1,-.6,.2,-1.3,.2,-1.9c9.1,-.2,18.2,-.7,27.2,.7Z" class="g2_1" />
<path d="M289,477.6c6.8,0,13.6,.8,20.3,2.2c-2,.5,-4.4,-1,-6,1.1c-6.9,.2,-13.6,-.7,-20.3,-2.2c2,-.6,4.3,.9,6,-1.1Z" class="g2_1" />
<path d="M232.1,609.1c0,-2,-.1,-4.2,2.5,-3.8c3.5,.6,2.8,3.9,3.3,6.2c.3,1.3,-.2,3.4,-2.4,3.2c-3.8,-.2,-3,-3.4,-3.4,-5.6Z" class="g2_1" />
<path d="M345.2,482.4c1.5,1.2,2.2,2.9,2.8,4.7c-1.1,-.5,-2.3,-1,-3.5,-1.5c-2.2,-3.3,-4.5,-3.4,-7,-.3c-3.7,-1.7,-8.1,0,-11.8,-1.9c.6,-1.7,2.4,-.9,3.4,-1.7c5.4,.1,10.7,1.4,16.1,.7Z" class="g2_1" />
<path d="M149.9,582.8c1.8,1,.3,3.7,2.3,4.6c7.3,1.9,7.8,1.5,8.3,-5.8c1.8,1.9,.5,4.4,1.4,6.4c-2.8,4.7,-7.3,2.3,-10.6,1.7c-3.3,-.6,-1,-4.5,-1.4,-6.9Z" class="g2_1" />
<path d="M321.8,574.4c1.8,.4,4.1,-.4,4.9,2.3c-2.3,0,-4.7,.1,-7,.1c-1.4,.1,-2.7,.2,-4.1,.3c-1.2,-.4,-2.2,-.2,-2.9,.8c-2.3,1.4,-.6,4.2,-2.2,5.8c-.4,-2.5,.7,-5.5,-2.4,-7c1.6,-1.9,4.3,-.1,5.9,-2.1c2.6,-.1,5.2,-.1,7.8,-.2Z" class="g2_1" />
<path d="M405,610.3c0,1.9,.2,4.1,-2.3,4c-2.8,-.2,-2.9,-2.6,-2.7,-4.8c.1,-1.6,-.7,-4.1,1.9,-4.2c3.6,-.2,2.4,3.2,3.1,5Z" class="g2_1" />
<path d="M44.5,352.8c3.8,6.4,2.2,12,2.9,17.3c.1,.9,-.3,2.1,-1.7,1.8c-1.2,-.2,-1.1,-1.4,-1.1,-2.3c-.1,-5.1,-.1,-10.2,-.1,-16.8Z" class="g2_1" />
<path d="M169.8,387.4c0,-.2,.1,-.4,0,-.6c-1.5,-3.6,5.6,-3.2,3.3,-7c-1.7,-2.8,-2.7,-5.5,-1.7,-9c1.8,3.7,3.5,7.3,3.5,11.3c1.3,4.7,-.4,6.4,-5.1,5.3Z" class="g2_1" />
<path d="M68.2,581.2c-1,2.4,-3.2,.9,-4.8,1.6c-7.4,.7,-3.7,-4.6,-4.6,-8c2,1.2,.4,3.4,2.6,4.5c1.5,-2.1,1.7,-4.7,2.3,-7.1c.4,.9,.8,1.7,1.2,2.6c.7,2.4,-2.5,6.7,3.3,6.4Z" class="g2_1" />
<path d="M786.2,575.8c1.2,-7,-3.2,-13.9,.4,-22.2c.9,8.2,1,15.2,-.5,22.1c0,0,.1,.1,.1,.1Z" class="g2_1" />
<path d="M84.7,340.1c-1.4,-.9,-.8,-2.5,-1.2,-3.8c-.3,-4.2,1,-8.5,-1.1,-12.5c1.9,-2.1,3.9,-1.8,5.9,-.3c-3.5,.6,-2.3,3.6,-2.6,5.6c-.5,3.6,-.7,7.3,-1,11Z" class="g2_1" />
<path d="M442.5,607.8c.1,-.7,-.6,-2.9,2,-2.4c3.4,.6,2.5,3.9,3.2,6.1c.5,1.5,-.6,2.3,-1.9,2.1c-2.8,-.4,-3.5,-2.5,-3.3,-5.8Z" class="g2_1" />
<path d="M669.1,519.1c.6,-3.9,3.4,-2.3,5.6,-2.3c-.2,.7,-.5,1.3,-.8,1.9c-.1,.4,-.1,.9,-.3,1.2c-1.4,1.7,.4,5.9,-2.5,5.7c-3.2,-.3,-1.5,-4.2,-2,-6.5Z" class="g2_1" />
<path d="M303.3,480.9c1.6,-2.1,4,-.6,6,-1.2c3.9,0,7.8,.1,11.6,1.4c-1.7,2,-4,.7,-5.9,1.1c-4,.1,-7.9,-.1,-11.7,-1.3Z" class="g2_1" />
<path d="M814.7,564.7c5.2,4.3,2.7,7.7,1.4,12.5c-2.7,-4.5,-1.5,-8,-1.4,-12.5Z" class="g2_1" />
<path d="M500,608.7c-.5,1.3,-.1,3.4,-2.1,3.5c-3.2,.2,-2.8,-2.7,-3.2,-4.6c-.4,-1.7,.5,-2.5,2.2,-2.6c2.5,0,2.6,1.9,3.1,3.7Z" class="g2_1" />
<path d="M592.2,576.8c-1.9,5.9,-.3,11.9,-1.1,17.8c-.2,2,.9,4.3,-1.4,5.8c.1,-1.4,.2,-2.9,.3,-4.4c0,-1.3,0,-2.6,.1,-3.9c0,-6.2,.1,-12.5,.2,-18.8c.6,.1,1.3,.1,1.9,.1c0,1.1,0,2.3,0,3.4Z" class="g2_1" />
<path d="M532.9,605.6c-.8,-4.7,-.8,-9.4,1.3,-13.9c.3,4.7,1.2,9.4,-1.3,13.9Z" class="g2_1" />
<path d="M114.3,569.9c2.3,-2,2.4,0,2.5,1.5c.1,2.6,0,5.3,-.1,7.9c-.2,3,.5,6.7,-4.6,5.6c0,-.6,0,-1.2,0,-1.9c4.3,-3.8,4.1,-8.3,2.2,-13.1Z" class="g2_1" />
<path d="M613.8,679.8c.4,-.5,.8,-.9,1.2,-1.3c3.1,3.7,6.1,7.5,9.1,11.2c-.4,.3,-.7,.6,-1.1,.9c-3,-3.6,-6.1,-7.2,-9.2,-10.8Z" class="g2_1" />
<path d="M289,477.6c-1.7,2,-4,.5,-6,1.1c-3.8,-.4,-7.9,.6,-11.5,-1.3c1.2,-1.9,3.1,-.5,4.6,-1.1c4.2,1.4,8.6,.5,12.9,1.3Z" class="g2_1" />
<path d="M238.5,572c-8.7,-.2,-17.5,1,-26.2,-.8c8.8,-.3,17.5,-.8,26.2,.8Z" class="g2_1" />
<path d="M64.9,574.8c-.4,-.9,-.8,-1.7,-1.2,-2.6c-.4,-8.4,5.8,-4,9.2,-4.7c0,.6,-.1,1.3,-.2,1.9c-1.4,.1,-2.9,.2,-4.3,.3c-4,-.2,-1.6,3.9,-3.5,5.1Z" class="g2_1" />
<path d="M291.2,585c.4,.3,.9,.7,1.3,1.1c-1.7,1.6,-4,2.4,-5.6,.7c-2.3,-2.3,-1.4,-5.6,-1.2,-8.8c3.5,1.5,-.1,7.7,5.5,7Z" class="g2_1" />
<path d="M607.6,599.3c-2.1,5.3,0,10.9,-1.3,16.2c-1.4,-.7,-.3,-2.2,-.9,-3.2c.1,-5.1,.2,-10.2,.3,-15.3h1.9c0,.8,0,1.6,0,2.3Z" class="g2_1" />
<path d="M590.2,643.2c.2,-7.6,-1.3,-15.2,.8,-22.7c.4,7.6,.6,15.2,-.8,22.7Z" class="g2_1" />
<path d="M592.4,544.9c0,.6,0,1.2,-.2,1.7c-.4,.7,-.7,.6,-.7,-.3c-.1,-2.9,-.2,-5.7,-.3,-8.6c.1,-3.9,.2,-7.8,.2,-11.7c2.2,3,.6,6.4,1.2,9.6c0,3.1,-.1,6.2,-.2,9.3Z" class="g2_1" />
<path d="M560.5,611.2c-.7,0,-1.4,-.1,-2.1,-.1c0,-5.1,0,-10.2,0,-15.3h.5c0,0,.5,0,.5,0c0,.4,0,.8,.1,1.1c.2,2.8,-.9,5.7,.7,8.3c.1,2,.2,4,.3,6Z" class="g2_1" />
<path d="M276.1,476.3c-1.5,.6,-3.4,-.8,-4.6,1.1c-3.2,-.1,-6.4,-.1,-9.6,-.2c.8,-.7,1.6,-1.4,2.4,-2.2c3.9,.2,8,-.5,11.8,1.3Z" class="g2_1" />
<path d="M345.9,546.2c2.2,1.9,.1,5,2,7c0,2.4,0,4.7,0,7c-.6,0,-1.3,0,-1.9,-.1c-.1,-4.6,-.1,-9.3,-.1,-13.9Z" class="g2_1" />
<path d="M865,584.7c0,-.6,0,-1.1,0,-1.7c3.6,-.1,7.2,-.2,10.8,-.3c-.8,.8,-1.5,1.5,-2.3,2.3c-2.8,.2,-5.7,.4,-8.5,-.3Z" class="g2_1" />
<path d="M315,482.2c1.9,-.4,4.2,.9,5.9,-1.1c2.7,-.1,5.5,-.5,8.2,.6c-1,.8,-2.8,0,-3.4,1.7c-3.6,-.1,-7.3,.6,-10.7,-1.2Z" class="g2_1" />
<path d="M330.2,576.9c2,-.6,4.3,.8,6,-1.2c2.2,0,4.6,-.7,7.3,1.3c-4.9,1.7,-9.1,1,-13.3,-.1Z" class="g2_1" />
<path d="M168.6,316.3c5.6,-1.6,11.1,-1.5,16.6,.1c-5.5,0,-11,-.1,-16.6,-.1Z" class="g2_1" />
<path d="M253.6,573.5c.1,.9,.3,1.8,1.3,2.2c.4,1.5,.9,3,1.3,4.4c-.3,1.3,.1,2.9,-1.3,3.8c.7,-3.2,-2.8,-4.9,-2.6,-7.9c0,-.9,.1,-1.8,.1,-2.6c.4,0,.8,0,1.2,.1Z" class="g2_1" />
<path d="M346,560.1c.6,.1,1.3,.1,1.9,.1c0,3.6,0,7.2,0,10.7c-1.8,-1.5,-.1,-4.3,-2,-5.8c0,-1.6,0,-3.3,.1,-5Z" class="g2_1" />
<path d="M847.2,571c-1.7,-3.8,-.4,-7.9,-1,-11.8c.3,-.8,.7,-1.7,1,-2.5c.4,4.8,.6,9.5,0,14.3Z" class="g2_1" />
<path d="M337.5,485.3c2.5,-3.1,4.8,-3,7,.3c-2.3,.1,-4.7,.6,-7,-.3Z" class="g2_1" />
<path d="M156,375.4c-.2,2.4,-.5,4.7,-.7,7h-.8V372.2c0,-.9,0,-1.7,0,-2.5c2.7,1.4,1,3.8,1.5,5.7Z" class="g2_1" />
<path d="M48.4,566.1c-3.6,-.1,-7.3,.8,-10.8,-.7c3.6,-.5,7.2,-.5,10.8,.7Z" class="g2_1" />
<path d="M112.1,583c0,.7,0,1.3,0,1.9h-6c1.3,-1.4,3.1,-1.8,4.9,-2.3c.4,.1,.8,.3,1.1,.4Z" class="g2_1" />
<path d="M847.2,556.7c-.3,.8,-.7,1.7,-1,2.5c-.3,0,-.6,-.1,-.8,-.1c-.2,-2.1,-.7,-4.3,.6,-6.8c1.9,1.2,1.2,3,1.2,4.4Z" class="g2_1" />
<path d="M73.1,457.3c2.7,.2,5.6,-.8,8.2,1.1c-2.8,.2,-5.6,-.1,-8.2,-1.1Z" class="g2_1" />
<path d="M559.4,595.8h-1c0,-2.7,0,-5.5,0,-8.2c.7,0,1.3,0,1.9,.1c-.1,1.7,-.1,3.4,-.2,5.1c-.3,1,-.5,2,-.7,3Z" class="g2_1" />
<path d="M846.3,534.1c.2,2.8,.7,5.6,-.4,8.3c-.8,-2.8,-.3,-5.5,.4,-8.3Z" class="g2_1" />
<path d="M325.4,569.8c-2.3,-.1,-4.7,.6,-6.8,-.9c2.3,-.4,4.6,.1,6.8,.9Z" class="g2_1" />
<path d="M154.6,364c.7,0,1.4,.1,2.1,.2c0,.3,.1,.6,.3,.9c-.4,.7,-.8,1.3,-1.1,2c-.4,-.3,-.8,-.6,-1.3,-.9c0,-.8,0,-1.5,0,-2.2Z" class="g2_1" />
<path d="M624.1,689.7c.6,.8,2.2,1.7,1,2.6c-.8,.7,-1.5,-.8,-2.1,-1.7c.4,-.3,.7,-.6,1.1,-.9Z" class="g2_1" />
<path d="M726.9,526.6c0,-.7,.1,-1.5,1,-1.8c-.4,.6,-.7,1.2,-1,1.8Z" class="g2_1" />
<path d="M725.8,530.3c.3,-.7,.6,-1.3,.9,-2c.4,1,-.2,1.5,-.9,2Z" class="g2_1" />
<path d="M154.6,366.2c.5,.3,.9,.6,1.3,.9c-.5,.1,-.9,.3,-1.4,.4c0,-.4,.1,-.9,.1,-1.3Z" class="g2_1" />
<path d="M530.5,498.8c-.2,.9,.5,1.2,1,1.6c-1.5,1.8,-1.4,3.9,-1.8,6.1c-.2,1.2,-.5,2.9,-2.3,2.8c-1.7,-.1,-2,-1.6,-2,-3c-.1,-2.1,-.1,-4.3,-.1,-6.4c1.9,.4,3.2,-2,5.2,-1.1Z" class="g2_1" />
<path d="M560.2,605.2c-1.6,-2.6,-.5,-5.5,-.7,-8.3c.2,.1,.5,.1,.8,.1c0,2.8,0,5.5,-.1,8.2Z" class="g2_1" />
<path d="M590.1,592.1c-.1,1.3,-.1,2.6,-.1,3.9c-.7,-1.3,-.5,-2.6,.1,-3.9Z" class="g2_1" />
<path d="M588.7,642.5c-.1,.7,.1,1.9,-.2,2.1c-1,.5,-1.6,-.4,-2,-1.3c.7,-.2,1.5,-.5,2.2,-.8Z" class="g2_1" />
<path d="M560.3,597c-.3,0,-.6,0,-.8,-.1c-.1,-.3,-.1,-.7,-.1,-1.1c.2,-1,.4,-2,.7,-3c.8,1.4,.6,2.8,.2,4.2Z" class="g2_1" />
<path d="M856.7,584.1c1.7,-.3,3.5,-.8,5,.4c-1.7,.6,-3.4,.5,-5,-.4Z" class="g2_1" />
<path d="M859.6,595.4c-.5,-.3,-.9,-.6,-1.4,-1c.5,.4,.9,.7,1.4,1Z" class="g2_1" />
<path d="M176.9,217.5c2.6,-.4,5.1,-.7,7.7,-1.1c2.7,-.7,3.9,.6,4.1,3.2c-3.9,-.1,-7.9,-.2,-11.9,-.3c0,-.6,.1,-1.2,.1,-1.8Z" class="g2_1" />
<path d="M179.4,193.1c.4,.1,.7,.2,1,.4c1.4,2.2,4.4,.2,5.9,2.2c-2.7,0,-5.5,0,-8.2,-.1c.4,-.8,.9,-1.7,1.3,-2.5Z" class="g2_1" />
<path d="M180.5,257.1l-11.8,-.2c4,-2.6,7.9,-3.4,11.8,.2Z" class="g2_1" />
<path d="M182.8,254c1.6,-.2,3.1,-.3,4.6,.6c-1.7,.6,-3.2,.8,-4.6,-.6Z" class="g2_1" />
<path d="M198.2,289.1l-11.8,-2.2c2.5,-1.3,4.9,-2.5,7.4,-3.7c3.7,-.3,6.6,2.3,10.2,2.5c.4,0,.8,0,1.2,0c-1.5,1.4,-1.9,4.1,-4.5,4.4c0,0,0,-.1,0,-.1c.5,-.7,1.5,-1.6,.3,-2.2c-1.1,-.4,-2.1,.4,-2.8,1.3Z" class="g2_1" />
<path d="M198.1,233.7c-6.6,-.8,-13.2,-1.5,-19.8,-2.3c-1.3,-.2,-2.6,-.4,-3.9,-.6v-.5c2.1,-.1,4.1,-.3,6.5,-.4c-2.5,-1.8,-5.5,.2,-7.4,-2c6.6,0,13.3,-1,19.9,1.2c.3,1.8,1.4,1.5,2.9,1.5c2.1,-.2,3.3,.9,1.8,3.1Z" class="g2_1" />
<path d="M168.7,243.4c2.4,0,4.8,0,7.2,-.1c3.4,2.7,8.8,-1.1,11.6,3.7c-7.8,-1.8,-15.5,-3.2,-22.7,1.9c-1.9,-.1,-2,-1.4,-2,-2.9c.1,-4.9,.1,-9.7,.5,-14.6c1.6,3.3,-.2,7.2,1.3,10.6c.2,.5,.3,1,.4,1.4c1.2,1.5,2.5,1,3.7,0Z" class="g2_1" />
<path d="M201.8,218.2c1.7,-.4,5,2.4,4.7,-2.2c2.5,2.9,.9,6.2,.9,9.3c0,.8,-1.2,.1,-1.9,-.1c-1.5,-2.1,-3.9,-2.6,-6.1,-3.6c.9,-1,2.5,-1.5,2.3,-3.3Z" class="g2_1" />
<path d="M186.3,195.7c-1.5,-2,-4.5,0,-5.9,-2.2c4.7,-.1,9.4,-.1,14.1,-.1c2.4,1.9,-.3,2.3,-.9,3.3c-2.5,.5,-4.9,0,-7.3,-1Z" class="g2_1" />
<path d="M188.7,219.6c-.2,-2.6,-1.4,-3.9,-4.1,-3.2c-1.5,-.2,-3,-.3,-6.1,-.7c5.8,-1.8,10,-1.1,14.1,-.4c1.7,.3,3.1,.6,4.2,-.9c.3,2.2,.1,4.3,-1,6.2c-2.4,.1,-4.8,.1,-7.1,-1Z" class="g2_1" />
<path d="M201.7,218.3c.2,1.8,-1.4,2.3,-2.3,3.3c-1,.3,-1.9,0,-2.7,-.8c1.6,-1,2.6,-3.1,5,-2.5Z" class="g2_1" />
<path d="M163.7,289.3c.1,7.8,.2,15.7,.3,23.6c-2.3,-7.8,-1.6,-15.7,-.3,-23.6Z" class="g2_1" />
<path d="M180.5,313.1c2.9,-.3,5.7,-.6,8.4,.9c-2.9,0,-5.7,.3,-8.4,-.9Z" class="g2_1" />
<path d="M164,312.9c1.5,.1,3.1,.2,4.7,.2c-1.7,1.1,-3.2,1.2,-4.7,-.2Z" class="g2_1" />
<path d="M173.3,313.1c1.2,0,2.4,0,3.6,0c-1.2,1,-2.4,1.1,-3.6,0Z" class="g2_1" />
<path d="M110.5,573.3c0,2.4,0,4.8,0,7.2c-1.3,-2.4,-1.2,-4.8,0,-7.2Z" class="g2_1" />
<path d="M198.2,289.1c.7,-.9,1.7,-1.7,2.8,-1.3c1.2,.6,.2,1.5,-.3,2.2c-.8,-.3,-1.7,-.6,-2.5,-.9Z" class="g2_1" />
<path d="M168.7,243.4c-1.2,1,-2.5,1.5,-3.7,0c1.3,0,2.5,0,3.7,0Z" class="g2_1" />

</svg>
