<svg width="300" height="200" xmlns="http://www.w3.org/2000/svg">
  <!-- Backgammon Board Background -->
  <rect width="300" height="200" fill="#8B5A2B" stroke="#4B2F1A" stroke-width="4" rx="10"/>
  
  <!-- Board Points (Triangles) -->
  <!-- Top Row -->
  <polygon points="20,20 35,60 50,20" fill="#654321"/>
  <polygon points="55,20 70,60 85,20" fill="#DEB887"/>
  <polygon points="90,20 105,60 120,20" fill="#654321"/>
  <polygon points="125,20 140,60 155,20" fill="#DEB887"/>
  <polygon points="160,20 175,60 190,20" fill="#654321"/>
  <polygon points="195,20 210,60 225,20" fill="#DEB887"/>
  
  <!-- Center Bar -->
  <rect x="145" y="20" width="10" height="160" fill="#4B2F1A"/>
  
  <!-- Bottom Row -->
  <polygon points="20,180 35,140 50,180" fill="#DEB887"/>
  <polygon points="55,180 70,140 85,180" fill="#654321"/>
  <polygon points="90,180 105,140 120,180" fill="#DEB887"/>
  <polygon points="125,180 140,140 155,180" fill="#654321"/>
  <polygon points="160,180 175,140 190,180" fill="#DEB887"/>
  <polygon points="195,180 210,140 225,180" fill="#654321"/>
  
  <!-- Right side points -->
  <polygon points="230,20 245,60 260,20" fill="#654321"/>
  <polygon points="265,20 280,60 295,20" fill="#DEB887"/>
  <polygon points="230,180 245,140 260,180" fill="#DEB887"/>
  <polygon points="265,180 280,140 295,180" fill="#654321"/>
  
  <!-- Game Pieces (Checkers) -->
  <!-- White pieces -->
  <circle cx="35" cy="170" r="8" fill="#FFFFFF" stroke="#CCCCCC" stroke-width="1"/>
  <circle cx="35" cy="154" r="8" fill="#FFFFFF" stroke="#CCCCCC" stroke-width="1"/>
  <circle cx="35" cy="138" r="8" fill="#FFFFFF" stroke="#CCCCCC" stroke-width="1"/>
  
  <circle cx="70" cy="30" r="8" fill="#FFFFFF" stroke="#CCCCCC" stroke-width="1"/>
  <circle cx="70" cy="46" r="8" fill="#FFFFFF" stroke="#CCCCCC" stroke-width="1"/>
  
  <circle cx="245" cy="170" r="8" fill="#FFFFFF" stroke="#CCCCCC" stroke-width="1"/>
  <circle cx="245" cy="154" r="8" fill="#FFFFFF" stroke="#CCCCCC" stroke-width="1"/>
  <circle cx="245" cy="138" r="8" fill="#FFFFFF" stroke="#CCCCCC" stroke-width="1"/>
  <circle cx="245" cy="122" r="8" fill="#FFFFFF" stroke="#CCCCCC" stroke-width="1"/>
  <circle cx="245" cy="106" r="8" fill="#FFFFFF" stroke="#CCCCCC" stroke-width="1"/>
  
  <!-- Black pieces -->
  <circle cx="175" cy="30" r="8" fill="#444444" stroke="#222222" stroke-width="1"/>
  <circle cx="175" cy="46" r="8" fill="#444444" stroke="#222222" stroke-width="1"/>
  <circle cx="175" cy="62" r="8" fill="#444444" stroke="#222222" stroke-width="1"/>
  
  <circle cx="210" cy="170" r="8" fill="#444444" stroke="#222222" stroke-width="1"/>
  <circle cx="210" cy="154" r="8" fill="#444444" stroke="#222222" stroke-width="1"/>
  
  <circle cx="105" cy="30" r="8" fill="#444444" stroke="#222222" stroke-width="1"/>
  <circle cx="105" cy="46" r="8" fill="#444444" stroke="#222222" stroke-width="1"/>
  <circle cx="105" cy="62" r="8" fill="#444444" stroke="#222222" stroke-width="1"/>
  <circle cx="105" cy="78" r="8" fill="#444444" stroke="#222222" stroke-width="1"/>
  <circle cx="105" cy="94" r="8" fill="#444444" stroke="#222222" stroke-width="1"/>
  
  <!-- Dice -->
  <rect x="10" y="90" width="20" height="20" fill="#FFFFFF" stroke="#CCCCCC" rx="3"/>
  <circle cx="15" cy="95" r="1.5" fill="#000"/>
  <circle cx="25" cy="105" r="1.5" fill="#000"/>
  <circle cx="20" cy="100" r="1.5" fill="#000"/>
  
  <rect x="10" y="115" width="20" height="20" fill="#FFFFFF" stroke="#CCCCCC" rx="3"/>
  <circle cx="15" cy="120" r="1.5" fill="#000"/>
  <circle cx="25" cy="120" r="1.5" fill="#000"/>
  <circle cx="15" cy="130" r="1.5" fill="#000"/>
  <circle cx="25" cy="130" r="1.5" fill="#000"/>
</svg>