<svg width="400" height="400" viewBox="0 0 400 400" fill="none" xmlns="http://www.w3.org/2000/svg">
  <!-- Background -->
  <rect width="400" height="400" fill="#F4F1E8"/>
  
  <!-- Wood grain pattern -->
  <defs>
    <pattern id="woodGrain" patternUnits="userSpaceOnUse" width="40" height="20">
      <rect width="40" height="20" fill="#E8DCC4"/>
      <path d="M0,10 Q20,5 40,10" stroke="#D4C4A8" stroke-width="1" fill="none"/>
      <path d="M0,15 Q20,12 40,15" stroke="#C4B498" stroke-width="0.5" fill="none"/>
    </pattern>
  </defs>
  
  <!-- Border -->
  <rect x="20" y="20" width="360" height="360" rx="12" stroke="#D4C4A8" stroke-width="2" fill="url(#woodGrain)"/>
  
  <!-- Olive branch -->
  <g transform="translate(200, 180)">
    <!-- Branch -->
    <path d="M-60,0 Q-30,-10 0,0 Q30,-10 60,0" stroke="#8B7355" stroke-width="4" fill="none"/>
    <!-- Leaves -->
    <ellipse cx="-40" cy="-8" rx="8" ry="15" fill="#6B7F47" transform="rotate(-20)"/>
    <ellipse cx="-20" cy="8" rx="8" ry="15" fill="#7A8F57" transform="rotate(20)"/>
    <ellipse cx="0" cy="-12" rx="8" ry="15" fill="#6B7F47" transform="rotate(-15)"/>
    <ellipse cx="20" cy="6" rx="8" ry="15" fill="#7A8F57" transform="rotate(25)"/>
    <ellipse cx="40" cy="-6" rx="8" ry="15" fill="#6B7F47" transform="rotate(-25)"/>
    <!-- Olives -->
    <circle cx="-30" cy="2" r="4" fill="#4A5C3A"/>
    <circle cx="10" cy="4" r="4" fill="#5A6D4A"/>
    <circle cx="35" cy="-2" r="4" fill="#4A5C3A"/>
  </g>
  
  <!-- Text -->
  <text x="200" y="320" text-anchor="middle" font-family="serif" font-size="16" font-weight="bold" fill="#8B7355">Olive Wood Crafts</text>
  <text x="200" y="340" text-anchor="middle" font-family="serif" font-size="12" fill="#A0926F">Handmade in Jerusalem</text>
</svg>