<svg width="300" height="200" xmlns="http://www.w3.org/2000/svg">
  <!-- Puzzle & Arcade Background -->
  <rect width="300" height="200" fill="#1A1A2E" stroke="#9C27B0" stroke-width="3" rx="15"/>
  
  <!-- 2048 Game Grid -->
  <rect x="20" y="20" width="120" height="120" fill="#0F0F23" stroke="#9C27B0" stroke-width="2" rx="5"/>
  
  <!-- 2048 tiles -->
  <rect x="25" y="25" width="25" height="25" fill="#EEE4DA" rx="3"/>
  <text x="37.5" y="40" text-anchor="middle" fill="#776E65" font-family="Arial, sans-serif" font-size="14" font-weight="bold">2</text>
  
  <rect x="55" y="25" width="25" height="25" fill="#EDE0C8" rx="3"/>
  <text x="67.5" y="40" text-anchor="middle" fill="#776E65" font-family="Arial, sans-serif" font-size="14" font-weight="bold">4</text>
  
  <rect x="85" y="25" width="25" height="25" fill="#F2B179" rx="3"/>
  <text x="97.5" y="40" text-anchor="middle" fill="#F9F6F2" font-family="Arial, sans-serif" font-size="14" font-weight="bold">8</text>
  
  <rect x="115" y="25" width="25" height="25" fill="#F59563" rx="3"/>
  <text x="127.5" y="40" text-anchor="middle" fill="#F9F6F2" font-family="Arial, sans-serif" font-size="12" font-weight="bold">16</text>
  
  <rect x="25" y="55" width="25" height="25" fill="#F67C5F" rx="3"/>
  <text x="37.5" y="70" text-anchor="middle" fill="#F9F6F2" font-family="Arial, sans-serif" font-size="12" font-weight="bold">32</text>
  
  <rect x="55" y="55" width="25" height="25" fill="#F65E3B" rx="3"/>
  <text x="67.5" y="70" text-anchor="middle" fill="#F9F6F2" font-family="Arial, sans-serif" font-size="12" font-weight="bold">64</text>
  
  <rect x="85" y="85" width="25" height="25" fill="#EDCF72" rx="3"/>
  <text x="97.5" y="100" text-anchor="middle" fill="#F9F6F2" font-family="Arial, sans-serif" font-size="10" font-weight="bold">128</text>
  
  <rect x="25" y="115" width="25" height="25" fill="#EDCC61" rx="3"/>
  <text x="37.5" y="130" text-anchor="middle" fill="#F9F6F2" font-family="Arial, sans-serif" font-size="10" font-weight="bold">256</text>
  
  <!-- Snake Game Preview -->
  <rect x="160" y="20" width="120" height="80" fill="#0A0A0A" stroke="#32CD32" stroke-width="2" rx="5"/>
  
  <!-- Snake body -->
  <rect x="170" y="30" width="8" height="8" fill="#32CD32"/>
  <rect x="178" y="30" width="8" height="8" fill="#228B22"/>
  <rect x="186" y="30" width="8" height="8" fill="#228B22"/>
  <rect x="194" y="30" width="8" height="8" fill="#228B22"/>
  <rect x="194" y="38" width="8" height="8" fill="#228B22"/>
  <rect x="194" y="46" width="8" height="8" fill="#228B22"/>
  <rect x="186" y="46" width="8" height="8" fill="#228B22"/>
  <rect x="178" y="46" width="8" height="8" fill="#228B22"/>
  
  <!-- Food -->
  <circle cx="245" cy="65" r="4" fill="#FF0000"/>
  
  <!-- Score -->
  <text x="165" y="90" fill="#32CD32" font-family="Arial, sans-serif" font-size="12" font-weight="bold">Score: 1250</text>
  
  <!-- Tetris Preview -->
  <rect x="160" y="110" width="60" height="70" fill="#0F0F23" stroke="#8B00FF" stroke-width="2" rx="5"/>
  
  <!-- Tetris pieces -->
  <rect x="165" y="115" width="8" height="8" fill="#FF8C00"/>
  <rect x="173" y="115" width="8" height="8" fill="#FF8C00"/>
  <rect x="173" y="123" width="8" height="8" fill="#FF8C00"/>
  <rect x="173" y="131" width="8" height="8" fill="#FF8C00"/>
  
  <rect x="185" y="130" width="8" height="8" fill="#00FFFF"/>
  <rect x="185" y="138" width="8" height="8" fill="#00FFFF"/>
  <rect x="185" y="146" width="8" height="8" fill="#00FFFF"/>
  <rect x="185" y="154" width="8" height="8" fill="#00FFFF"/>
  
  <rect x="195" y="160" width="8" height="8" fill="#FFFF00"/>
  <rect x="203" y="160" width="8" height="8" fill="#FFFF00"/>
  <rect x="195" y="168" width="8" height="8" fill="#FFFF00"/>
  <rect x="203" y="168" width="8" height="8" fill="#FFFF00"/>
  
  <!-- Bottom filled line -->
  <rect x="165" y="170" width="8" height="8" fill="#32CD32"/>
  <rect x="173" y="170" width="8" height="8" fill="#FF69B4"/>
  <rect x="181" y="170" width="8" height="8" fill="#8B00FF"/>
  <rect x="189" y="170" width="8" height="8" fill="#FF8C00"/>
  <rect x="197" y="170" width="8" height="8" fill="#00FFFF"/>
  <rect x="205" y="170" width="8" height="8" fill="#FFFF00"/>
  <rect x="213" y="170" width="8" height="8" fill="#FF0000"/>
  
  <!-- Memory Game Preview -->
  <rect x="230" y="110" width="50" height="70" fill="#2C3E50" stroke="#FF69B4" stroke-width="2" rx="5"/>
  
  <!-- Memory cards -->
  <rect x="235" y="115" width="18" height="12" fill="#FF69B4" rx="2"/>
  <text x="244" y="123" text-anchor="middle" fill="white" font-family="Arial, sans-serif" font-size="8">🌟</text>
  
  <rect x="257" y="115" width="18" height="12" fill="#3498DB" rx="2"/>
  <text x="266" y="123" text-anchor="middle" fill="white" font-family="Arial, sans-serif" font-size="8">?</text>
  
  <rect x="235" y="130" width="18" height="12" fill="#3498DB" rx="2"/>
  <text x="244" y="138" text-anchor="middle" fill="white" font-family="Arial, sans-serif" font-size="8">?</text>
  
  <rect x="257" y="130" width="18" height="12" fill="#FF69B4" rx="2"/>
  <text x="266" y="138" text-anchor="middle" fill="white" font-family="Arial, sans-serif" font-size="8">🌟</text>
  
  <rect x="235" y="145" width="18" height="12" fill="#3498DB" rx="2"/>
  <text x="244" y="153" text-anchor="middle" fill="white" font-family="Arial, sans-serif" font-size="8">?</text>
  
  <rect x="257" y="145" width="18" height="12" fill="#3498DB" rx="2"/>
  <text x="266" y="153" text-anchor="middle" fill="white" font-family="Arial, sans-serif" font-size="8">?</text>
  
  <!-- Puzzle & Arcade title -->
  <text x="20" y="165" fill="#9C27B0" font-family="Arial, sans-serif" font-size="14" font-weight="bold">Puzzle & Arcade</text>
  <text x="20" y="180" fill="#FFFFFF" font-family="Arial, sans-serif" font-size="12">2048 • Snake • Tetris • Memory</text>
  <text x="20" y="195" fill="#CCCCCC" font-family="Arial, sans-serif" font-size="10">Brain Training Games</text>
</svg>